SplineFontDB: 3.2
FontName: Pixel-14x14-condensed
FullName: Pixel-14x14-condensed
FamilyName: Pixel-14x14
Weight: Regular
Copyright: Copyright (c) 2024, CTCL
UComments: "2024-5-25: Created with FontForge (http://fontforge.org)"
Version: 001.000
ItalicAngle: 0
UnderlinePosition: -147.456
UnderlineWidth: 73.728
Ascent: 896
Descent: 256
InvalidEm: 0
LayerCount: 2
Layer: 0 0 "Back" 1
Layer: 1 0 "Fore" 0
XUID: [1021 591 -1735377019 11935276]
StyleMap: 0x0000
FSType: 0
OS2Version: 0
OS2_WeightWidthSlopeOnly: 0
OS2_UseTypoMetrics: 1
CreationTime: 1716662636
ModificationTime: 1717008468
OS2TypoAscent: 0
OS2TypoAOffset: 1
OS2TypoDescent: 0
OS2TypoDOffset: 1
OS2TypoLinegap: 104
OS2WinAscent: 0
OS2WinAOffset: 1
OS2WinDescent: 0
OS2WinDOffset: 1
HheadAscent: 0
HheadAOffset: 1
HheadDescent: 0
HheadDOffset: 1
MarkAttachClasses: 1
DEI: 91125
Encoding: ISO8859-1
UnicodeInterp: none
NameList: AGL For New Fonts
DisplaySize: -48
AntiAlias: 1
FitToEm: 0
WinInfo: 0 38 14
BeginPrivate: 0
EndPrivate
BeginChars: 256 95

StartChar: exclam
Encoding: 33 33 1
Width: 256
Flags: HW
LayerCount: 2
Fore
SplineSet
0 896 m 1
 64 896 l 1
 128 896 l 1
 128 832 l 1
 128 768 l 1
 128 704 l 1
 128 640 l 1
 128 576 l 1
 128 512 l 1
 128 448 l 1
 128 384 l 1
 128 320 l 1
 128 256 l 1
 128 192 l 1
 64 192 l 1
 0 192 l 1
 0 256 l 1
 0 320 l 1
 0 384 l 1
 0 448 l 1
 0 512 l 1
 0 576 l 1
 0 640 l 1
 0 704 l 1
 0 768 l 1
 0 832 l 1
 0 896 l 1
0 128 m 1
 64 128 l 1
 128 128 l 1
 128 64 l 1
 128 0 l 1
 64 0 l 1
 0 0 l 1
 0 64 l 1
 0 128 l 1
EndSplineSet
EndChar

StartChar: quotedbl
Encoding: 34 34 2
Width: 512
Flags: HW
LayerCount: 2
Fore
SplineSet
0 896 m 1
 64 896 l 1
 128 896 l 1
 128 832 l 1
 128 768 l 1
 128 704 l 1
 64 704 l 1
 0 704 l 1
 0 768 l 1
 0 832 l 1
 0 896 l 1
256 896 m 1
 320 896 l 1
 384 896 l 1
 384 832 l 1
 384 768 l 1
 384 704 l 1
 320 704 l 1
 256 704 l 1
 256 768 l 1
 256 832 l 1
 256 896 l 1
EndSplineSet
EndChar

StartChar: numbersign
Encoding: 35 35 3
Width: 768
Flags: HW
LayerCount: 2
Fore
SplineSet
128 896 m 1
 192 896 l 1
 256 896 l 1
 256 832 l 1
 256 768 l 1
 256 704 l 1
 256 640 l 1
 320 640 l 1
 384 640 l 1
 384 704 l 1
 384 768 l 1
 384 832 l 1
 384 896 l 1
 448 896 l 1
 512 896 l 1
 512 832 l 1
 512 768 l 1
 512 704 l 1
 512 640 l 1
 576 640 l 1
 640 640 l 1
 640 576 l 1
 640 512 l 1
 576 512 l 1
 512 512 l 1
 512 448 l 1
 512 384 l 1
 576 384 l 1
 640 384 l 1
 640 320 l 1
 640 256 l 1
 576 256 l 1
 512 256 l 1
 512 192 l 1
 512 128 l 1
 512 64 l 1
 512 0 l 1
 448 0 l 1
 384 0 l 1
 384 64 l 1
 384 128 l 1
 384 192 l 1
 384 256 l 1
 320 256 l 1
 256 256 l 1
 256 192 l 1
 256 128 l 1
 256 64 l 1
 256 0 l 1
 192 0 l 1
 128 0 l 1
 128 64 l 1
 128 128 l 1
 128 192 l 1
 128 256 l 1
 64 256 l 1
 0 256 l 1
 0 320 l 1
 0 384 l 1
 64 384 l 1
 128 384 l 1
 128 448 l 1
 128 512 l 1
 64 512 l 1
 0 512 l 1
 0 576 l 1
 0 640 l 1
 64 640 l 1
 128 640 l 1
 128 704 l 1
 128 768 l 1
 128 832 l 1
 128 896 l 1
256 512 m 1
 256 448 l 1
 256 384 l 1
 320 384 l 1
 384 384 l 1
 384 448 l 1
 384 512 l 1
 320 512 l 1
 256 512 l 1
EndSplineSet
EndChar

StartChar: dollar
Encoding: 36 36 4
Width: 768
Flags: HW
LayerCount: 2
Fore
SplineSet
256 896 m 1
 320 896 l 1
 384 896 l 1
 384 832 l 1
 384 768 l 1
 448 768 l 1
 512 768 l 1
 576 768 l 1
 576 704 l 1
 640 704 l 1
 640 640 l 1
 576 640 l 1
 512 640 l 1
 448 640 l 1
 384 640 l 1
 384 576 l 1
 384 512 l 1
 448 512 l 1
 512 512 l 1
 576 512 l 1
 576 448 l 1
 640 448 l 1
 640 384 l 1
 640 320 l 1
 640 256 l 1
 640 192 l 1
 576 192 l 1
 576 128 l 1
 512 128 l 1
 448 128 l 1
 384 128 l 1
 384 64 l 1
 384 0 l 1
 320 0 l 1
 256 0 l 1
 256 64 l 1
 256 128 l 1
 192 128 l 1
 128 128 l 1
 64 128 l 1
 64 192 l 1
 0 192 l 1
 0 256 l 1
 64 256 l 1
 128 256 l 1
 192 256 l 1
 256 256 l 1
 256 320 l 1
 256 384 l 1
 192 384 l 1
 128 384 l 1
 64 384 l 1
 64 448 l 1
 0 448 l 1
 0 512 l 1
 0 576 l 1
 0 640 l 1
 0 704 l 1
 64 704 l 1
 64 768 l 1
 128 768 l 1
 192 768 l 1
 256 768 l 1
 256 832 l 1
 256 896 l 1
128 640 m 1
 128 576 l 1
 128 512 l 1
 192 512 l 1
 256 512 l 1
 256 576 l 1
 256 640 l 1
 192 640 l 1
 128 640 l 1
384 384 m 1
 384 320 l 1
 384 256 l 1
 448 256 l 1
 512 256 l 1
 512 320 l 1
 512 384 l 1
 448 384 l 1
 384 384 l 1
EndSplineSet
EndChar

StartChar: percent
Encoding: 37 37 5
Width: 768
Flags: HW
LayerCount: 2
Fore
SplineSet
0 896 m 1
 64 896 l 1
 128 896 l 1
 192 896 l 1
 256 896 l 1
 256 832 l 1
 256 768 l 1
 256 704 l 1
 256 640 l 1
 192 640 l 1
 128 640 l 1
 64 640 l 1
 0 640 l 1
 0 704 l 1
 0 768 l 1
 0 832 l 1
 0 896 l 1
512 896 m 1
 576 896 l 1
 640 896 l 1
 640 832 l 1
 640 768 l 1
 576 768 l 1
 576 704 l 1
 576 640 l 1
 512 640 l 1
 512 576 l 1
 448 576 l 1
 448 512 l 1
 448 448 l 1
 384 448 l 1
 384 384 l 1
 320 384 l 1
 320 320 l 1
 320 256 l 1
 256 256 l 1
 256 192 l 1
 192 192 l 1
 192 128 l 1
 192 64 l 1
 128 64 l 1
 128 0 l 1
 64 0 l 1
 0 0 l 1
 0 64 l 1
 0 128 l 1
 64 128 l 1
 64 192 l 1
 64 256 l 1
 128 256 l 1
 128 320 l 1
 192 320 l 1
 192 384 l 1
 192 448 l 1
 256 448 l 1
 256 512 l 1
 320 512 l 1
 320 576 l 1
 320 640 l 1
 384 640 l 1
 384 704 l 1
 448 704 l 1
 448 768 l 1
 448 832 l 1
 512 832 l 1
 512 896 l 1
64 832 m 1
 64 768 l 1
 64 704 l 1
 128 704 l 1
 192 704 l 1
 192 768 l 1
 192 832 l 1
 128 832 l 1
 64 832 l 1
384 256 m 1
 448 256 l 1
 512 256 l 1
 576 256 l 1
 640 256 l 1
 640 192 l 1
 640 128 l 1
 640 64 l 1
 640 0 l 1
 576 0 l 1
 512 0 l 1
 448 0 l 1
 384 0 l 1
 384 64 l 1
 384 128 l 1
 384 192 l 1
 384 256 l 1
448 192 m 1
 448 128 l 1
 448 64 l 1
 512 64 l 1
 576 64 l 1
 576 128 l 1
 576 192 l 1
 512 192 l 1
 448 192 l 1
EndSplineSet
EndChar

StartChar: quotesingle
Encoding: 39 39 7
Width: 256
Flags: HW
LayerCount: 2
Fore
SplineSet
0 896 m 1
 64 896 l 1
 128 896 l 1
 128 832 l 1
 128 768 l 1
 128 704 l 1
 64 704 l 1
 0 704 l 1
 0 768 l 1
 0 832 l 1
 0 896 l 1
EndSplineSet
EndChar

StartChar: parenleft
Encoding: 40 40 8
Width: 448
Flags: HW
LayerCount: 2
Fore
SplineSet
128 896 m 1
 192 896 l 1
 256 896 l 1
 320 896 l 1
 320 832 l 1
 320 768 l 1
 256 768 l 1
 192 768 l 1
 192 704 l 1
 128 704 l 1
 128 640 l 1
 128 576 l 1
 128 512 l 1
 128 448 l 1
 128 384 l 1
 128 320 l 1
 128 256 l 1
 128 192 l 1
 192 192 l 1
 192 128 l 1
 256 128 l 1
 320 128 l 1
 320 64 l 1
 320 0 l 1
 256 0 l 1
 192 0 l 1
 128 0 l 1
 128 64 l 1
 64 64 l 1
 64 128 l 1
 0 128 l 1
 0 192 l 1
 0 256 l 1
 0 320 l 1
 0 384 l 1
 0 448 l 1
 0 512 l 1
 0 576 l 1
 0 640 l 1
 0 704 l 1
 0 768 l 1
 64 768 l 1
 64 832 l 1
 128 832 l 1
 128 896 l 1
EndSplineSet
EndChar

StartChar: parenright
Encoding: 41 41 9
Width: 448
Flags: HW
LayerCount: 2
Fore
SplineSet
0 896 m 1
 64 896 l 1
 128 896 l 1
 192 896 l 1
 192 832 l 1
 256 832 l 1
 256 768 l 1
 320 768 l 1
 320 704 l 1
 320 640 l 1
 320 576 l 1
 320 512 l 1
 320 448 l 1
 320 384 l 1
 320 320 l 1
 320 256 l 1
 320 192 l 1
 320 128 l 1
 256 128 l 1
 256 64 l 1
 192 64 l 1
 192 0 l 1
 128 0 l 1
 64 0 l 1
 0 0 l 1
 0 64 l 1
 0 128 l 1
 64 128 l 1
 128 128 l 1
 128 192 l 1
 192 192 l 1
 192 256 l 1
 192 320 l 1
 192 384 l 1
 192 448 l 1
 192 512 l 1
 192 576 l 1
 192 640 l 1
 192 704 l 1
 128 704 l 1
 128 768 l 1
 64 768 l 1
 0 768 l 1
 0 832 l 1
 0 896 l 1
EndSplineSet
EndChar

StartChar: plus
Encoding: 43 43 11
Width: 768
Flags: HW
LayerCount: 2
Fore
SplineSet
256 768 m 1
 320 768 l 1
 384 768 l 1
 384 704 l 1
 384 640 l 1
 384 576 l 1
 384 512 l 1
 448 512 l 1
 512 512 l 1
 576 512 l 1
 640 512 l 1
 640 448 l 1
 640 384 l 1
 576 384 l 1
 512 384 l 1
 448 384 l 1
 384 384 l 1
 384 320 l 1
 384 256 l 1
 384 192 l 1
 384 128 l 1
 320 128 l 1
 256 128 l 1
 256 192 l 1
 256 256 l 1
 256 320 l 1
 256 384 l 1
 192 384 l 1
 128 384 l 1
 64 384 l 1
 0 384 l 1
 0 448 l 1
 0 512 l 1
 64 512 l 1
 128 512 l 1
 192 512 l 1
 256 512 l 1
 256 576 l 1
 256 640 l 1
 256 704 l 1
 256 768 l 1
EndSplineSet
EndChar

StartChar: comma
Encoding: 44 44 12
Width: 256
Flags: HW
LayerCount: 2
Fore
SplineSet
0 192 m 1
 64 192 l 1
 128 192 l 1
 128 128 l 1
 128 64 l 1
 128 0 l 1
 64 0 l 1
 0 0 l 1
 0 64 l 1
 0 128 l 1
 0 192 l 1
EndSplineSet
EndChar

StartChar: hyphen
Encoding: 45 45 13
Width: 768
Flags: HW
LayerCount: 2
Fore
SplineSet
0 512 m 1
 64 512 l 1
 128 512 l 1
 192 512 l 1
 256 512 l 1
 320 512 l 1
 384 512 l 1
 448 512 l 1
 512 512 l 1
 576 512 l 1
 640 512 l 1
 640 448 l 1
 640 384 l 1
 576 384 l 1
 512 384 l 1
 448 384 l 1
 384 384 l 1
 320 384 l 1
 256 384 l 1
 192 384 l 1
 128 384 l 1
 64 384 l 1
 0 384 l 1
 0 448 l 1
 0 512 l 1
EndSplineSet
EndChar

StartChar: period
Encoding: 46 46 14
Width: 256
Flags: HW
LayerCount: 2
Fore
SplineSet
0 128 m 1
 64 128 l 1
 128 128 l 1
 128 64 l 1
 128 0 l 1
 64 0 l 1
 0 0 l 1
 0 64 l 1
 0 128 l 1
EndSplineSet
EndChar

StartChar: slash
Encoding: 47 47 15
Width: 768
Flags: HW
LayerCount: 2
Fore
SplineSet
512 896 m 1
 576 896 l 1
 640 896 l 1
 640 832 l 1
 640 768 l 1
 576 768 l 1
 576 704 l 1
 576 640 l 1
 512 640 l 1
 512 576 l 1
 448 576 l 1
 448 512 l 1
 448 448 l 1
 384 448 l 1
 384 384 l 1
 320 384 l 1
 320 320 l 1
 320 256 l 1
 256 256 l 1
 256 192 l 1
 192 192 l 1
 192 128 l 1
 192 64 l 1
 128 64 l 1
 128 0 l 1
 64 0 l 1
 0 0 l 1
 0 64 l 1
 0 128 l 1
 64 128 l 1
 64 192 l 1
 64 256 l 1
 128 256 l 1
 128 320 l 1
 192 320 l 1
 192 384 l 1
 192 448 l 1
 256 448 l 1
 256 512 l 1
 320 512 l 1
 320 576 l 1
 320 640 l 1
 384 640 l 1
 384 704 l 1
 448 704 l 1
 448 768 l 1
 448 832 l 1
 512 832 l 1
 512 896 l 1
EndSplineSet
EndChar

StartChar: zero
Encoding: 48 48 16
Width: 768
Flags: HW
LayerCount: 2
Fore
SplineSet
64 896 m 1
 128 896 l 1
 192 896 l 1
 256 896 l 1
 320 896 l 1
 384 896 l 1
 448 896 l 1
 512 896 l 1
 576 896 l 1
 576 832 l 1
 640 832 l 1
 640 768 l 1
 640 704 l 1
 640 640 l 1
 640 576 l 1
 640 512 l 1
 640 448 l 1
 640 384 l 1
 640 320 l 1
 640 256 l 1
 640 192 l 1
 640 128 l 1
 640 64 l 1
 576 64 l 1
 576 0 l 1
 512 0 l 1
 448 0 l 1
 384 0 l 1
 320 0 l 1
 256 0 l 1
 192 0 l 1
 128 0 l 1
 64 0 l 1
 64 64 l 1
 0 64 l 1
 0 128 l 1
 0 192 l 1
 0 256 l 1
 0 320 l 1
 0 384 l 1
 0 448 l 1
 0 512 l 1
 0 576 l 1
 0 640 l 1
 0 704 l 1
 0 768 l 1
 0 832 l 1
 64 832 l 1
 64 896 l 1
128 768 m 1
 128 704 l 1
 128 640 l 1
 128 576 l 1
 128 512 l 1
 128 448 l 1
 128 384 l 1
 192 384 l 1
 192 448 l 1
 256 448 l 1
 256 512 l 1
 320 512 l 1
 320 576 l 1
 384 576 l 1
 384 640 l 1
 448 640 l 1
 448 704 l 1
 512 704 l 1
 512 768 l 1
 448 768 l 1
 384 768 l 1
 320 768 l 1
 256 768 l 1
 192 768 l 1
 128 768 l 1
448 512 m 1
 448 448 l 1
 384 448 l 1
 384 384 l 1
 320 384 l 1
 320 320 l 1
 256 320 l 1
 256 256 l 1
 192 256 l 1
 192 192 l 1
 128 192 l 1
 128 128 l 1
 192 128 l 1
 256 128 l 1
 320 128 l 1
 384 128 l 1
 448 128 l 1
 512 128 l 1
 512 192 l 1
 512 256 l 1
 512 320 l 1
 512 384 l 1
 512 448 l 1
 512 512 l 1
 448 512 l 1
EndSplineSet
EndChar

StartChar: one
Encoding: 49 49 17
Width: 768
Flags: HW
LayerCount: 2
Fore
SplineSet
256 896 m 1
 320 896 l 1
 384 896 l 1
 384 832 l 1
 384 768 l 1
 384 704 l 1
 384 640 l 1
 384 576 l 1
 384 512 l 1
 384 448 l 1
 384 384 l 1
 384 320 l 1
 384 256 l 1
 384 192 l 1
 384 128 l 1
 448 128 l 1
 512 128 l 1
 576 128 l 1
 640 128 l 1
 640 64 l 1
 640 0 l 1
 576 0 l 1
 512 0 l 1
 448 0 l 1
 384 0 l 1
 320 0 l 1
 256 0 l 1
 192 0 l 1
 128 0 l 1
 64 0 l 1
 0 0 l 1
 0 64 l 1
 0 128 l 1
 64 128 l 1
 128 128 l 1
 192 128 l 1
 256 128 l 1
 256 192 l 1
 256 256 l 1
 256 320 l 1
 256 384 l 1
 256 448 l 1
 256 512 l 1
 256 576 l 1
 256 640 l 1
 256 704 l 1
 192 704 l 1
 128 704 l 1
 128 768 l 1
 192 768 l 1
 192 832 l 1
 256 832 l 1
 256 896 l 1
EndSplineSet
EndChar

StartChar: two
Encoding: 50 50 18
Width: 768
Flags: HW
LayerCount: 2
Fore
SplineSet
64 896 m 1
 128 896 l 1
 192 896 l 1
 256 896 l 1
 320 896 l 1
 384 896 l 1
 448 896 l 1
 512 896 l 1
 576 896 l 1
 576 832 l 1
 640 832 l 1
 640 768 l 1
 640 704 l 1
 640 640 l 1
 640 576 l 1
 576 576 l 1
 576 512 l 1
 512 512 l 1
 512 448 l 1
 448 448 l 1
 448 384 l 1
 384 384 l 1
 384 320 l 1
 320 320 l 1
 320 256 l 1
 256 256 l 1
 256 192 l 1
 192 192 l 1
 192 128 l 1
 256 128 l 1
 320 128 l 1
 384 128 l 1
 448 128 l 1
 512 128 l 1
 576 128 l 1
 640 128 l 1
 640 64 l 1
 640 0 l 1
 576 0 l 1
 512 0 l 1
 448 0 l 1
 384 0 l 1
 320 0 l 1
 256 0 l 1
 192 0 l 1
 128 0 l 1
 64 0 l 1
 0 0 l 1
 0 64 l 1
 0 128 l 1
 0 192 l 1
 64 192 l 1
 64 256 l 1
 128 256 l 1
 128 320 l 1
 192 320 l 1
 192 384 l 1
 256 384 l 1
 256 448 l 1
 320 448 l 1
 320 512 l 1
 384 512 l 1
 384 576 l 1
 448 576 l 1
 448 640 l 1
 512 640 l 1
 512 704 l 1
 512 768 l 1
 448 768 l 1
 384 768 l 1
 320 768 l 1
 256 768 l 1
 192 768 l 1
 128 768 l 1
 128 704 l 1
 64 704 l 1
 0 704 l 1
 0 768 l 1
 0 832 l 1
 64 832 l 1
 64 896 l 1
EndSplineSet
EndChar

StartChar: three
Encoding: 51 51 19
Width: 768
Flags: HW
LayerCount: 2
Fore
SplineSet
64 896 m 1
 128 896 l 1
 192 896 l 1
 256 896 l 1
 320 896 l 1
 384 896 l 1
 448 896 l 1
 512 896 l 1
 576 896 l 1
 576 832 l 1
 640 832 l 1
 640 768 l 1
 640 704 l 1
 640 640 l 1
 640 576 l 1
 640 512 l 1
 576 512 l 1
 576 448 l 1
 576 384 l 1
 640 384 l 1
 640 320 l 1
 640 256 l 1
 640 192 l 1
 640 128 l 1
 640 64 l 1
 576 64 l 1
 576 0 l 1
 512 0 l 1
 448 0 l 1
 384 0 l 1
 320 0 l 1
 256 0 l 1
 192 0 l 1
 128 0 l 1
 64 0 l 1
 64 64 l 1
 0 64 l 1
 0 128 l 1
 0 192 l 1
 64 192 l 1
 128 192 l 1
 128 128 l 1
 192 128 l 1
 256 128 l 1
 320 128 l 1
 384 128 l 1
 448 128 l 1
 512 128 l 1
 512 192 l 1
 512 256 l 1
 512 320 l 1
 512 384 l 1
 448 384 l 1
 384 384 l 1
 320 384 l 1
 256 384 l 1
 256 448 l 1
 256 512 l 1
 320 512 l 1
 384 512 l 1
 448 512 l 1
 512 512 l 1
 512 576 l 1
 512 640 l 1
 512 704 l 1
 512 768 l 1
 448 768 l 1
 384 768 l 1
 320 768 l 1
 256 768 l 1
 192 768 l 1
 128 768 l 1
 128 704 l 1
 64 704 l 1
 0 704 l 1
 0 768 l 1
 0 832 l 1
 64 832 l 1
 64 896 l 1
EndSplineSet
EndChar

StartChar: four
Encoding: 52 52 20
Width: 768
Flags: HW
LayerCount: 2
Fore
SplineSet
0 896 m 1
 64 896 l 1
 128 896 l 1
 128 832 l 1
 128 768 l 1
 128 704 l 1
 128 640 l 1
 128 576 l 1
 128 512 l 1
 192 512 l 1
 256 512 l 1
 320 512 l 1
 384 512 l 1
 448 512 l 1
 512 512 l 1
 512 576 l 1
 512 640 l 1
 512 704 l 1
 512 768 l 1
 512 832 l 1
 512 896 l 1
 576 896 l 1
 640 896 l 1
 640 832 l 1
 640 768 l 1
 640 704 l 1
 640 640 l 1
 640 576 l 1
 640 512 l 1
 640 448 l 1
 640 384 l 1
 640 320 l 1
 640 256 l 1
 640 192 l 1
 640 128 l 1
 640 64 l 1
 640 0 l 1
 576 0 l 1
 512 0 l 1
 512 64 l 1
 512 128 l 1
 512 192 l 1
 512 256 l 1
 512 320 l 1
 512 384 l 1
 448 384 l 1
 384 384 l 1
 320 384 l 1
 256 384 l 1
 192 384 l 1
 128 384 l 1
 64 384 l 1
 0 384 l 1
 0 448 l 1
 0 512 l 1
 0 576 l 1
 0 640 l 1
 0 704 l 1
 0 768 l 1
 0 832 l 1
 0 896 l 1
EndSplineSet
EndChar

StartChar: five
Encoding: 53 53 21
Width: 768
Flags: HW
LayerCount: 2
Fore
SplineSet
0 896 m 1
 64 896 l 1
 128 896 l 1
 192 896 l 1
 256 896 l 1
 320 896 l 1
 384 896 l 1
 448 896 l 1
 512 896 l 1
 576 896 l 1
 640 896 l 1
 640 832 l 1
 640 768 l 1
 576 768 l 1
 512 768 l 1
 448 768 l 1
 384 768 l 1
 320 768 l 1
 256 768 l 1
 192 768 l 1
 128 768 l 1
 128 704 l 1
 128 640 l 1
 128 576 l 1
 128 512 l 1
 192 512 l 1
 256 512 l 1
 320 512 l 1
 384 512 l 1
 448 512 l 1
 512 512 l 1
 576 512 l 1
 640 512 l 1
 640 448 l 1
 640 384 l 1
 640 320 l 1
 640 256 l 1
 640 192 l 1
 640 128 l 1
 640 64 l 1
 576 64 l 1
 576 0 l 1
 512 0 l 1
 448 0 l 1
 384 0 l 1
 320 0 l 1
 256 0 l 1
 192 0 l 1
 128 0 l 1
 64 0 l 1
 64 64 l 1
 0 64 l 1
 0 128 l 1
 0 192 l 1
 64 192 l 1
 128 192 l 1
 128 128 l 1
 192 128 l 1
 256 128 l 1
 320 128 l 1
 384 128 l 1
 448 128 l 1
 512 128 l 1
 512 192 l 1
 512 256 l 1
 512 320 l 1
 512 384 l 1
 448 384 l 1
 384 384 l 1
 320 384 l 1
 256 384 l 1
 192 384 l 1
 128 384 l 1
 64 384 l 1
 0 384 l 1
 0 448 l 1
 0 512 l 1
 0 576 l 1
 0 640 l 1
 0 704 l 1
 0 768 l 1
 0 832 l 1
 0 896 l 1
EndSplineSet
EndChar

StartChar: six
Encoding: 54 54 22
Width: 768
Flags: HW
LayerCount: 2
Fore
SplineSet
64 896 m 1
 128 896 l 1
 192 896 l 1
 256 896 l 1
 320 896 l 1
 384 896 l 1
 448 896 l 1
 512 896 l 1
 576 896 l 1
 640 896 l 1
 640 832 l 1
 640 768 l 1
 576 768 l 1
 512 768 l 1
 448 768 l 1
 384 768 l 1
 320 768 l 1
 256 768 l 1
 192 768 l 1
 128 768 l 1
 128 704 l 1
 128 640 l 1
 128 576 l 1
 128 512 l 1
 192 512 l 1
 256 512 l 1
 320 512 l 1
 384 512 l 1
 448 512 l 1
 512 512 l 1
 576 512 l 1
 576 448 l 1
 640 448 l 1
 640 384 l 1
 640 320 l 1
 640 256 l 1
 640 192 l 1
 640 128 l 1
 640 64 l 1
 576 64 l 1
 576 0 l 1
 512 0 l 1
 448 0 l 1
 384 0 l 1
 320 0 l 1
 256 0 l 1
 192 0 l 1
 128 0 l 1
 64 0 l 1
 64 64 l 1
 0 64 l 1
 0 128 l 1
 0 192 l 1
 0 256 l 1
 0 320 l 1
 0 384 l 1
 0 448 l 1
 0 512 l 1
 0 576 l 1
 0 640 l 1
 0 704 l 1
 0 768 l 1
 0 832 l 1
 64 832 l 1
 64 896 l 1
128 384 m 1
 128 320 l 1
 128 256 l 1
 128 192 l 1
 128 128 l 1
 192 128 l 1
 256 128 l 1
 320 128 l 1
 384 128 l 1
 448 128 l 1
 512 128 l 1
 512 192 l 1
 512 256 l 1
 512 320 l 1
 512 384 l 1
 448 384 l 1
 384 384 l 1
 320 384 l 1
 256 384 l 1
 192 384 l 1
 128 384 l 1
EndSplineSet
EndChar

StartChar: seven
Encoding: 55 55 23
Width: 768
Flags: HW
LayerCount: 2
Fore
SplineSet
0 896 m 1
 64 896 l 1
 128 896 l 1
 192 896 l 1
 256 896 l 1
 320 896 l 1
 384 896 l 1
 448 896 l 1
 512 896 l 1
 576 896 l 1
 640 896 l 1
 640 832 l 1
 640 768 l 1
 640 704 l 1
 576 704 l 1
 576 640 l 1
 512 640 l 1
 512 576 l 1
 448 576 l 1
 448 512 l 1
 384 512 l 1
 384 448 l 1
 384 384 l 1
 384 320 l 1
 384 256 l 1
 384 192 l 1
 384 128 l 1
 384 64 l 1
 384 0 l 1
 320 0 l 1
 256 0 l 1
 256 64 l 1
 256 128 l 1
 256 192 l 1
 256 256 l 1
 256 320 l 1
 256 384 l 1
 256 448 l 1
 256 512 l 1
 256 576 l 1
 320 576 l 1
 320 640 l 1
 384 640 l 1
 384 704 l 1
 448 704 l 1
 448 768 l 1
 384 768 l 1
 320 768 l 1
 256 768 l 1
 192 768 l 1
 128 768 l 1
 64 768 l 1
 0 768 l 1
 0 832 l 1
 0 896 l 1
EndSplineSet
EndChar

StartChar: eight
Encoding: 56 56 24
Width: 768
Flags: HW
LayerCount: 2
Fore
SplineSet
64 896 m 1
 128 896 l 1
 192 896 l 1
 256 896 l 1
 320 896 l 1
 384 896 l 1
 448 896 l 1
 512 896 l 1
 576 896 l 1
 576 832 l 1
 640 832 l 1
 640 768 l 1
 640 704 l 1
 640 640 l 1
 640 576 l 1
 640 512 l 1
 640 448 l 1
 640 384 l 1
 640 320 l 1
 640 256 l 1
 640 192 l 1
 640 128 l 1
 640 64 l 1
 576 64 l 1
 576 0 l 1
 512 0 l 1
 448 0 l 1
 384 0 l 1
 320 0 l 1
 256 0 l 1
 192 0 l 1
 128 0 l 1
 64 0 l 1
 64 64 l 1
 0 64 l 1
 0 128 l 1
 0 192 l 1
 0 256 l 1
 0 320 l 1
 0 384 l 1
 0 448 l 1
 0 512 l 1
 0 576 l 1
 0 640 l 1
 0 704 l 1
 0 768 l 1
 0 832 l 1
 64 832 l 1
 64 896 l 1
128 768 m 1
 128 704 l 1
 128 640 l 1
 128 576 l 1
 128 512 l 1
 192 512 l 1
 256 512 l 1
 320 512 l 1
 384 512 l 1
 448 512 l 1
 512 512 l 1
 512 576 l 1
 512 640 l 1
 512 704 l 1
 512 768 l 1
 448 768 l 1
 384 768 l 1
 320 768 l 1
 256 768 l 1
 192 768 l 1
 128 768 l 1
128 384 m 1
 128 320 l 1
 128 256 l 1
 128 192 l 1
 128 128 l 1
 192 128 l 1
 256 128 l 1
 320 128 l 1
 384 128 l 1
 448 128 l 1
 512 128 l 1
 512 192 l 1
 512 256 l 1
 512 320 l 1
 512 384 l 1
 448 384 l 1
 384 384 l 1
 320 384 l 1
 256 384 l 1
 192 384 l 1
 128 384 l 1
EndSplineSet
EndChar

StartChar: nine
Encoding: 57 57 25
Width: 768
Flags: HW
LayerCount: 2
Fore
SplineSet
64 896 m 1
 128 896 l 1
 192 896 l 1
 256 896 l 1
 320 896 l 1
 384 896 l 1
 448 896 l 1
 512 896 l 1
 576 896 l 1
 576 832 l 1
 640 832 l 1
 640 768 l 1
 640 704 l 1
 640 640 l 1
 640 576 l 1
 640 512 l 1
 640 448 l 1
 640 384 l 1
 640 320 l 1
 640 256 l 1
 640 192 l 1
 640 128 l 1
 640 64 l 1
 576 64 l 1
 576 0 l 1
 512 0 l 1
 448 0 l 1
 384 0 l 1
 320 0 l 1
 256 0 l 1
 192 0 l 1
 128 0 l 1
 64 0 l 1
 64 64 l 1
 0 64 l 1
 0 128 l 1
 64 128 l 1
 128 128 l 1
 192 128 l 1
 256 128 l 1
 320 128 l 1
 384 128 l 1
 448 128 l 1
 512 128 l 1
 512 192 l 1
 512 256 l 1
 512 320 l 1
 512 384 l 1
 448 384 l 1
 384 384 l 1
 320 384 l 1
 256 384 l 1
 192 384 l 1
 128 384 l 1
 64 384 l 1
 64 448 l 1
 0 448 l 1
 0 512 l 1
 0 576 l 1
 0 640 l 1
 0 704 l 1
 0 768 l 1
 0 832 l 1
 64 832 l 1
 64 896 l 1
128 768 m 1
 128 704 l 1
 128 640 l 1
 128 576 l 1
 128 512 l 1
 192 512 l 1
 256 512 l 1
 320 512 l 1
 384 512 l 1
 448 512 l 1
 512 512 l 1
 512 576 l 1
 512 640 l 1
 512 704 l 1
 512 768 l 1
 448 768 l 1
 384 768 l 1
 320 768 l 1
 256 768 l 1
 192 768 l 1
 128 768 l 1
EndSplineSet
EndChar

StartChar: colon
Encoding: 58 58 26
Width: 256
Flags: HW
LayerCount: 2
Fore
SplineSet
0 768 m 1
 64 768 l 1
 128 768 l 1
 128 704 l 1
 128 640 l 1
 64 640 l 1
 0 640 l 1
 0 704 l 1
 0 768 l 1
0 256 m 1
 64 256 l 1
 128 256 l 1
 128 192 l 1
 128 128 l 1
 64 128 l 1
 0 128 l 1
 0 192 l 1
 0 256 l 1
EndSplineSet
EndChar

StartChar: semicolon
Encoding: 59 59 27
Width: 256
Flags: HW
LayerCount: 2
Fore
SplineSet
0 768 m 1
 64 768 l 1
 128 768 l 1
 128 704 l 1
 128 640 l 1
 64 640 l 1
 0 640 l 1
 0 704 l 1
 0 768 l 1
0 256 m 1
 64 256 l 1
 128 256 l 1
 128 192 l 1
 128 128 l 1
 128 64 l 1
 128 0 l 1
 64 0 l 1
 0 0 l 1
 0 64 l 1
 0 128 l 1
 0 192 l 1
 0 256 l 1
EndSplineSet
EndChar

StartChar: less
Encoding: 60 60 28
Width: 768
Flags: HW
LayerCount: 2
Fore
SplineSet
384 896 m 1
 448 896 l 1
 512 896 l 1
 512 832 l 1
 512 768 l 1
 448 768 l 1
 448 704 l 1
 384 704 l 1
 384 640 l 1
 320 640 l 1
 320 576 l 1
 256 576 l 1
 256 512 l 1
 192 512 l 1
 192 448 l 1
 192 384 l 1
 256 384 l 1
 256 320 l 1
 320 320 l 1
 320 256 l 1
 384 256 l 1
 384 192 l 1
 448 192 l 1
 448 128 l 1
 512 128 l 1
 512 64 l 1
 512 0 l 1
 448 0 l 1
 384 0 l 1
 384 64 l 1
 320 64 l 1
 320 128 l 1
 256 128 l 1
 256 192 l 1
 192 192 l 1
 192 256 l 1
 128 256 l 1
 128 320 l 1
 64 320 l 1
 64 384 l 1
 0 384 l 1
 0 448 l 1
 0 512 l 1
 64 512 l 1
 64 576 l 1
 128 576 l 1
 128 640 l 1
 192 640 l 1
 192 704 l 1
 256 704 l 1
 256 768 l 1
 320 768 l 1
 320 832 l 1
 384 832 l 1
 384 896 l 1
EndSplineSet
EndChar

StartChar: equal
Encoding: 61 61 29
Width: 768
Flags: HW
LayerCount: 2
Fore
SplineSet
0 640 m 1
 64 640 l 1
 128 640 l 1
 192 640 l 1
 256 640 l 1
 320 640 l 1
 384 640 l 1
 448 640 l 1
 512 640 l 1
 576 640 l 1
 640 640 l 1
 640 576 l 1
 640 512 l 1
 576 512 l 1
 512 512 l 1
 448 512 l 1
 384 512 l 1
 320 512 l 1
 256 512 l 1
 192 512 l 1
 128 512 l 1
 64 512 l 1
 0 512 l 1
 0 576 l 1
 0 640 l 1
0 384 m 1
 64 384 l 1
 128 384 l 1
 192 384 l 1
 256 384 l 1
 320 384 l 1
 384 384 l 1
 448 384 l 1
 512 384 l 1
 576 384 l 1
 640 384 l 1
 640 320 l 1
 640 256 l 1
 576 256 l 1
 512 256 l 1
 448 256 l 1
 384 256 l 1
 320 256 l 1
 256 256 l 1
 192 256 l 1
 128 256 l 1
 64 256 l 1
 0 256 l 1
 0 320 l 1
 0 384 l 1
EndSplineSet
EndChar

StartChar: greater
Encoding: 62 62 30
Width: 768
Flags: HW
LayerCount: 2
Fore
SplineSet
0 896 m 1
 64 896 l 1
 128 896 l 1
 128 832 l 1
 192 832 l 1
 192 768 l 1
 256 768 l 1
 256 704 l 1
 320 704 l 1
 320 640 l 1
 384 640 l 1
 384 576 l 1
 448 576 l 1
 448 512 l 1
 512 512 l 1
 512 448 l 1
 512 384 l 1
 448 384 l 1
 448 320 l 1
 384 320 l 1
 384 256 l 1
 320 256 l 1
 320 192 l 1
 256 192 l 1
 256 128 l 1
 192 128 l 1
 192 64 l 1
 128 64 l 1
 128 0 l 1
 64 0 l 1
 0 0 l 1
 0 64 l 1
 0 128 l 1
 64 128 l 1
 64 192 l 1
 128 192 l 1
 128 256 l 1
 192 256 l 1
 192 320 l 1
 256 320 l 1
 256 384 l 1
 320 384 l 1
 320 448 l 1
 320 512 l 1
 256 512 l 1
 256 576 l 1
 192 576 l 1
 192 640 l 1
 128 640 l 1
 128 704 l 1
 64 704 l 1
 64 768 l 1
 0 768 l 1
 0 832 l 1
 0 896 l 1
EndSplineSet
EndChar

StartChar: question
Encoding: 63 63 31
Width: 768
Flags: HW
LayerCount: 2
Fore
SplineSet
64 896 m 1
 128 896 l 1
 192 896 l 1
 256 896 l 1
 320 896 l 1
 384 896 l 1
 448 896 l 1
 512 896 l 1
 576 896 l 1
 576 832 l 1
 640 832 l 1
 640 768 l 1
 640 704 l 1
 640 640 l 1
 640 576 l 1
 576 576 l 1
 576 512 l 1
 512 512 l 1
 512 448 l 1
 448 448 l 1
 448 384 l 1
 384 384 l 1
 384 320 l 1
 384 256 l 1
 384 192 l 1
 320 192 l 1
 256 192 l 1
 256 256 l 1
 256 320 l 1
 256 384 l 1
 256 448 l 1
 320 448 l 1
 320 512 l 1
 384 512 l 1
 384 576 l 1
 448 576 l 1
 448 640 l 1
 512 640 l 1
 512 704 l 1
 512 768 l 1
 448 768 l 1
 384 768 l 1
 320 768 l 1
 256 768 l 1
 192 768 l 1
 128 768 l 1
 128 704 l 1
 64 704 l 1
 0 704 l 1
 0 768 l 1
 0 832 l 1
 64 832 l 1
 64 896 l 1
256 128 m 1
 320 128 l 1
 384 128 l 1
 384 64 l 1
 384 0 l 1
 320 0 l 1
 256 0 l 1
 256 64 l 1
 256 128 l 1
EndSplineSet
EndChar

StartChar: at
Encoding: 64 64 32
Width: 768
Flags: HW
LayerCount: 2
Fore
SplineSet
64 640 m 1
 128 640 l 1
 192 640 l 1
 256 640 l 1
 320 640 l 1
 384 640 l 1
 448 640 l 1
 512 640 l 1
 576 640 l 1
 576 576 l 1
 512 576 l 1
 448 576 l 1
 384 576 l 1
 320 576 l 1
 256 576 l 1
 192 576 l 1
 128 576 l 1
 64 576 l 1
 64 640 l 1
576 576 m 1
 640 576 l 1
 640 512 l 1
 640 448 l 1
 640 384 l 1
 640 320 l 1
 640 256 l 1
 640 192 l 1
 576 192 l 1
 576 256 l 1
 576 320 l 1
 576 384 l 1
 576 448 l 1
 576 512 l 1
 576 576 l 1
576 192 m 1
 576 128 l 1
 512 128 l 1
 448 128 l 1
 384 128 l 1
 320 128 l 1
 256 128 l 1
 192 128 l 1
 192 192 l 1
 256 192 l 1
 320 192 l 1
 384 192 l 1
 448 192 l 1
 448 256 l 1
 448 320 l 1
 448 384 l 1
 448 448 l 1
 384 448 l 1
 320 448 l 1
 256 448 l 1
 192 448 l 1
 192 512 l 1
 256 512 l 1
 320 512 l 1
 384 512 l 1
 448 512 l 1
 512 512 l 1
 512 448 l 1
 512 384 l 1
 512 320 l 1
 512 256 l 1
 512 192 l 1
 576 192 l 1
192 192 m 1
 128 192 l 1
 128 256 l 1
 128 320 l 1
 128 384 l 1
 128 448 l 1
 192 448 l 1
 192 384 l 1
 192 320 l 1
 192 256 l 1
 192 192 l 1
64 576 m 1
 64 512 l 1
 64 448 l 1
 64 384 l 1
 64 320 l 1
 64 256 l 1
 64 192 l 1
 64 128 l 1
 64 64 l 1
 0 64 l 1
 0 128 l 1
 0 192 l 1
 0 256 l 1
 0 320 l 1
 0 384 l 1
 0 448 l 1
 0 512 l 1
 0 576 l 1
 64 576 l 1
64 64 m 1
 128 64 l 1
 192 64 l 1
 256 64 l 1
 320 64 l 1
 384 64 l 1
 448 64 l 1
 512 64 l 1
 576 64 l 1
 640 64 l 1
 640 0 l 1
 576 0 l 1
 512 0 l 1
 448 0 l 1
 384 0 l 1
 320 0 l 1
 256 0 l 1
 192 0 l 1
 128 0 l 1
 64 0 l 1
 64 64 l 1
EndSplineSet
EndChar

StartChar: A
Encoding: 65 65 33
Width: 768
Flags: HW
LayerCount: 2
Fore
SplineSet
64 896 m 1
 128 896 l 1
 192 896 l 1
 256 896 l 1
 320 896 l 1
 384 896 l 1
 448 896 l 1
 512 896 l 1
 576 896 l 1
 576 832 l 1
 640 832 l 1
 640 768 l 1
 640 704 l 1
 640 640 l 1
 640 576 l 1
 640 512 l 1
 640 448 l 1
 640 384 l 1
 640 320 l 1
 640 256 l 1
 640 192 l 1
 640 128 l 1
 640 64 l 1
 640 0 l 1
 576 0 l 1
 512 0 l 1
 512 64 l 1
 512 128 l 1
 512 192 l 1
 512 256 l 1
 512 320 l 1
 512 384 l 1
 512 448 l 1
 448 448 l 1
 384 448 l 1
 320 448 l 1
 256 448 l 1
 192 448 l 1
 128 448 l 1
 128 384 l 1
 128 320 l 1
 128 256 l 1
 128 192 l 1
 128 128 l 1
 128 64 l 1
 128 0 l 1
 64 0 l 1
 0 0 l 1
 0 64 l 1
 0 128 l 1
 0 192 l 1
 0 256 l 1
 0 320 l 1
 0 384 l 1
 0 448 l 1
 0 512 l 1
 0 576 l 1
 0 640 l 1
 0 704 l 1
 0 768 l 1
 0 832 l 1
 64 832 l 1
 64 896 l 1
128 768 m 1
 128 704 l 1
 128 640 l 1
 128 576 l 1
 192 576 l 1
 256 576 l 1
 320 576 l 1
 384 576 l 1
 448 576 l 1
 512 576 l 1
 512 640 l 1
 512 704 l 1
 512 768 l 1
 448 768 l 1
 384 768 l 1
 320 768 l 1
 256 768 l 1
 192 768 l 1
 128 768 l 1
EndSplineSet
EndChar

StartChar: B
Encoding: 66 66 34
Width: 768
Flags: HW
LayerCount: 2
Fore
SplineSet
0 896 m 1
 64 896 l 1
 128 896 l 1
 192 896 l 1
 256 896 l 1
 320 896 l 1
 384 896 l 1
 448 896 l 1
 512 896 l 1
 576 896 l 1
 576 832 l 1
 640 832 l 1
 640 768 l 1
 640 704 l 1
 640 640 l 1
 640 576 l 1
 640 512 l 1
 576 512 l 1
 576 448 l 1
 576 384 l 1
 640 384 l 1
 640 320 l 1
 640 256 l 1
 640 192 l 1
 640 128 l 1
 640 64 l 1
 576 64 l 1
 576 0 l 1
 512 0 l 1
 448 0 l 1
 384 0 l 1
 320 0 l 1
 256 0 l 1
 192 0 l 1
 128 0 l 1
 64 0 l 1
 0 0 l 1
 0 64 l 1
 0 128 l 1
 0 192 l 1
 0 256 l 1
 0 320 l 1
 0 384 l 1
 0 448 l 1
 0 512 l 1
 0 576 l 1
 0 640 l 1
 0 704 l 1
 0 768 l 1
 0 832 l 1
 0 896 l 1
128 768 m 1
 128 704 l 1
 128 640 l 1
 128 576 l 1
 128 512 l 1
 192 512 l 1
 256 512 l 1
 320 512 l 1
 384 512 l 1
 448 512 l 1
 512 512 l 1
 512 576 l 1
 512 640 l 1
 512 704 l 1
 512 768 l 1
 448 768 l 1
 384 768 l 1
 320 768 l 1
 256 768 l 1
 192 768 l 1
 128 768 l 1
128 384 m 1
 128 320 l 1
 128 256 l 1
 128 192 l 1
 128 128 l 1
 192 128 l 1
 256 128 l 1
 320 128 l 1
 384 128 l 1
 448 128 l 1
 512 128 l 1
 512 192 l 1
 512 256 l 1
 512 320 l 1
 512 384 l 1
 448 384 l 1
 384 384 l 1
 320 384 l 1
 256 384 l 1
 192 384 l 1
 128 384 l 1
EndSplineSet
EndChar

StartChar: C
Encoding: 67 67 35
Width: 768
Flags: HW
LayerCount: 2
Fore
SplineSet
64 896 m 1
 128 896 l 1
 192 896 l 1
 256 896 l 1
 320 896 l 1
 384 896 l 1
 448 896 l 1
 512 896 l 1
 576 896 l 1
 640 896 l 1
 640 832 l 1
 640 768 l 1
 576 768 l 1
 512 768 l 1
 448 768 l 1
 384 768 l 1
 320 768 l 1
 256 768 l 1
 192 768 l 1
 128 768 l 1
 128 704 l 1
 128 640 l 1
 128 576 l 1
 128 512 l 1
 128 448 l 1
 128 384 l 1
 128 320 l 1
 128 256 l 1
 128 192 l 1
 128 128 l 1
 192 128 l 1
 256 128 l 1
 320 128 l 1
 384 128 l 1
 448 128 l 1
 512 128 l 1
 576 128 l 1
 640 128 l 1
 640 64 l 1
 640 0 l 1
 576 0 l 1
 512 0 l 1
 448 0 l 1
 384 0 l 1
 320 0 l 1
 256 0 l 1
 192 0 l 1
 128 0 l 1
 64 0 l 1
 64 64 l 1
 0 64 l 1
 0 128 l 1
 0 192 l 1
 0 256 l 1
 0 320 l 1
 0 384 l 1
 0 448 l 1
 0 512 l 1
 0 576 l 1
 0 640 l 1
 0 704 l 1
 0 768 l 1
 0 832 l 1
 64 832 l 1
 64 896 l 1
EndSplineSet
EndChar

StartChar: D
Encoding: 68 68 36
Width: 768
Flags: HW
LayerCount: 2
Fore
SplineSet
0 896 m 1
 64 896 l 1
 128 896 l 1
 192 896 l 1
 256 896 l 1
 320 896 l 1
 384 896 l 1
 448 896 l 1
 512 896 l 1
 576 896 l 1
 576 832 l 1
 640 832 l 1
 640 768 l 1
 640 704 l 1
 640 640 l 1
 640 576 l 1
 640 512 l 1
 640 448 l 1
 640 384 l 1
 640 320 l 1
 640 256 l 1
 640 192 l 1
 640 128 l 1
 640 64 l 1
 576 64 l 1
 576 0 l 1
 512 0 l 1
 448 0 l 1
 384 0 l 1
 320 0 l 1
 256 0 l 1
 192 0 l 1
 128 0 l 1
 64 0 l 1
 0 0 l 1
 0 64 l 1
 0 128 l 1
 0 192 l 1
 0 256 l 1
 0 320 l 1
 0 384 l 1
 0 448 l 1
 0 512 l 1
 0 576 l 1
 0 640 l 1
 0 704 l 1
 0 768 l 1
 0 832 l 1
 0 896 l 1
128 768 m 1
 128 704 l 1
 128 640 l 1
 128 576 l 1
 128 512 l 1
 128 448 l 1
 128 384 l 1
 128 320 l 1
 128 256 l 1
 128 192 l 1
 128 128 l 1
 192 128 l 1
 256 128 l 1
 320 128 l 1
 384 128 l 1
 448 128 l 1
 512 128 l 1
 512 192 l 1
 512 256 l 1
 512 320 l 1
 512 384 l 1
 512 448 l 1
 512 512 l 1
 512 576 l 1
 512 640 l 1
 512 704 l 1
 512 768 l 1
 448 768 l 1
 384 768 l 1
 320 768 l 1
 256 768 l 1
 192 768 l 1
 128 768 l 1
EndSplineSet
EndChar

StartChar: E
Encoding: 69 69 37
Width: 768
Flags: HW
LayerCount: 2
Fore
SplineSet
0 896 m 1
 64 896 l 1
 128 896 l 1
 192 896 l 1
 256 896 l 1
 320 896 l 1
 384 896 l 1
 448 896 l 1
 512 896 l 1
 576 896 l 1
 640 896 l 1
 640 832 l 1
 640 768 l 1
 576 768 l 1
 512 768 l 1
 448 768 l 1
 384 768 l 1
 320 768 l 1
 256 768 l 1
 192 768 l 1
 128 768 l 1
 128 704 l 1
 128 640 l 1
 128 576 l 1
 128 512 l 1
 192 512 l 1
 256 512 l 1
 320 512 l 1
 384 512 l 1
 448 512 l 1
 448 448 l 1
 448 384 l 1
 384 384 l 1
 320 384 l 1
 256 384 l 1
 192 384 l 1
 128 384 l 1
 128 320 l 1
 128 256 l 1
 128 192 l 1
 128 128 l 1
 192 128 l 1
 256 128 l 1
 320 128 l 1
 384 128 l 1
 448 128 l 1
 512 128 l 1
 576 128 l 1
 640 128 l 1
 640 64 l 1
 640 0 l 1
 576 0 l 1
 512 0 l 1
 448 0 l 1
 384 0 l 1
 320 0 l 1
 256 0 l 1
 192 0 l 1
 128 0 l 1
 64 0 l 1
 0 0 l 1
 0 64 l 1
 0 128 l 1
 0 192 l 1
 0 256 l 1
 0 320 l 1
 0 384 l 1
 0 448 l 1
 0 512 l 1
 0 576 l 1
 0 640 l 1
 0 704 l 1
 0 768 l 1
 0 832 l 1
 0 896 l 1
EndSplineSet
EndChar

StartChar: F
Encoding: 70 70 38
Width: 768
Flags: HW
LayerCount: 2
Fore
SplineSet
0 896 m 1
 64 896 l 1
 128 896 l 1
 192 896 l 1
 256 896 l 1
 320 896 l 1
 384 896 l 1
 448 896 l 1
 512 896 l 1
 576 896 l 1
 640 896 l 1
 640 832 l 1
 640 768 l 1
 576 768 l 1
 512 768 l 1
 448 768 l 1
 384 768 l 1
 320 768 l 1
 256 768 l 1
 192 768 l 1
 128 768 l 1
 128 704 l 1
 128 640 l 1
 128 576 l 1
 128 512 l 1
 192 512 l 1
 256 512 l 1
 320 512 l 1
 384 512 l 1
 448 512 l 1
 448 448 l 1
 448 384 l 1
 384 384 l 1
 320 384 l 1
 256 384 l 1
 192 384 l 1
 128 384 l 1
 128 320 l 1
 128 256 l 1
 128 192 l 1
 128 128 l 1
 128 64 l 1
 128 0 l 1
 64 0 l 1
 0 0 l 1
 0 64 l 1
 0 128 l 1
 0 192 l 1
 0 256 l 1
 0 320 l 1
 0 384 l 1
 0 448 l 1
 0 512 l 1
 0 576 l 1
 0 640 l 1
 0 704 l 1
 0 768 l 1
 0 832 l 1
 0 896 l 1
EndSplineSet
EndChar

StartChar: G
Encoding: 71 71 39
Width: 768
Flags: HW
LayerCount: 2
Fore
SplineSet
64 896 m 1
 128 896 l 1
 192 896 l 1
 256 896 l 1
 320 896 l 1
 384 896 l 1
 448 896 l 1
 512 896 l 1
 576 896 l 1
 640 896 l 1
 640 832 l 1
 640 768 l 1
 576 768 l 1
 512 768 l 1
 448 768 l 1
 384 768 l 1
 320 768 l 1
 256 768 l 1
 192 768 l 1
 128 768 l 1
 128 704 l 1
 128 640 l 1
 128 576 l 1
 128 512 l 1
 128 448 l 1
 128 384 l 1
 128 320 l 1
 128 256 l 1
 128 192 l 1
 128 128 l 1
 192 128 l 1
 256 128 l 1
 320 128 l 1
 384 128 l 1
 448 128 l 1
 512 128 l 1
 512 192 l 1
 512 256 l 1
 512 320 l 1
 512 384 l 1
 448 384 l 1
 384 384 l 1
 320 384 l 1
 256 384 l 1
 256 448 l 1
 256 512 l 1
 320 512 l 1
 384 512 l 1
 448 512 l 1
 512 512 l 1
 576 512 l 1
 576 448 l 1
 640 448 l 1
 640 384 l 1
 640 320 l 1
 640 256 l 1
 640 192 l 1
 640 128 l 1
 640 64 l 1
 576 64 l 1
 576 0 l 1
 512 0 l 1
 448 0 l 1
 384 0 l 1
 320 0 l 1
 256 0 l 1
 192 0 l 1
 128 0 l 1
 64 0 l 1
 64 64 l 1
 0 64 l 1
 0 128 l 1
 0 192 l 1
 0 256 l 1
 0 320 l 1
 0 384 l 1
 0 448 l 1
 0 512 l 1
 0 576 l 1
 0 640 l 1
 0 704 l 1
 0 768 l 1
 0 832 l 1
 64 832 l 1
 64 896 l 1
EndSplineSet
EndChar

StartChar: H
Encoding: 72 72 40
Width: 768
Flags: HW
LayerCount: 2
Fore
SplineSet
0 896 m 1
 64 896 l 1
 128 896 l 1
 128 832 l 1
 128 768 l 1
 128 704 l 1
 128 640 l 1
 128 576 l 1
 128 512 l 1
 192 512 l 1
 256 512 l 1
 320 512 l 1
 384 512 l 1
 448 512 l 1
 512 512 l 1
 512 576 l 1
 512 640 l 1
 512 704 l 1
 512 768 l 1
 512 832 l 1
 512 896 l 1
 576 896 l 1
 640 896 l 1
 640 832 l 1
 640 768 l 1
 640 704 l 1
 640 640 l 1
 640 576 l 1
 640 512 l 1
 640 448 l 1
 640 384 l 1
 640 320 l 1
 640 256 l 1
 640 192 l 1
 640 128 l 1
 640 64 l 1
 640 0 l 1
 576 0 l 1
 512 0 l 1
 512 64 l 1
 512 128 l 1
 512 192 l 1
 512 256 l 1
 512 320 l 1
 512 384 l 1
 448 384 l 1
 384 384 l 1
 320 384 l 1
 256 384 l 1
 192 384 l 1
 128 384 l 1
 128 320 l 1
 128 256 l 1
 128 192 l 1
 128 128 l 1
 128 64 l 1
 128 0 l 1
 64 0 l 1
 0 0 l 1
 0 64 l 1
 0 128 l 1
 0 192 l 1
 0 256 l 1
 0 320 l 1
 0 384 l 1
 0 448 l 1
 0 512 l 1
 0 576 l 1
 0 640 l 1
 0 704 l 1
 0 768 l 1
 0 832 l 1
 0 896 l 1
EndSplineSet
EndChar

StartChar: I
Encoding: 73 73 41
Width: 768
Flags: HW
LayerCount: 2
Fore
SplineSet
0 896 m 1
 64 896 l 1
 128 896 l 1
 192 896 l 1
 256 896 l 1
 320 896 l 1
 384 896 l 1
 448 896 l 1
 512 896 l 1
 576 896 l 1
 640 896 l 1
 640 832 l 1
 640 768 l 1
 576 768 l 1
 512 768 l 1
 448 768 l 1
 384 768 l 1
 384 704 l 1
 384 640 l 1
 384 576 l 1
 384 512 l 1
 384 448 l 1
 384 384 l 1
 384 320 l 1
 384 256 l 1
 384 192 l 1
 384 128 l 1
 448 128 l 1
 512 128 l 1
 576 128 l 1
 640 128 l 1
 640 64 l 1
 640 0 l 1
 576 0 l 1
 512 0 l 1
 448 0 l 1
 384 0 l 1
 320 0 l 1
 256 0 l 1
 192 0 l 1
 128 0 l 1
 64 0 l 1
 0 0 l 1
 0 64 l 1
 0 128 l 1
 64 128 l 1
 128 128 l 1
 192 128 l 1
 256 128 l 1
 256 192 l 1
 256 256 l 1
 256 320 l 1
 256 384 l 1
 256 448 l 1
 256 512 l 1
 256 576 l 1
 256 640 l 1
 256 704 l 1
 256 768 l 1
 192 768 l 1
 128 768 l 1
 64 768 l 1
 0 768 l 1
 0 832 l 1
 0 896 l 1
EndSplineSet
EndChar

StartChar: J
Encoding: 74 74 42
Width: 768
Flags: HW
LayerCount: 2
Fore
SplineSet
512 896 m 1
 576 896 l 1
 640 896 l 1
 640 832 l 1
 640 768 l 1
 640 704 l 1
 640 640 l 1
 640 576 l 1
 640 512 l 1
 640 448 l 1
 640 384 l 1
 640 320 l 1
 640 256 l 1
 640 192 l 1
 640 128 l 1
 576 128 l 1
 576 64 l 1
 512 64 l 1
 512 0 l 1
 448 0 l 1
 384 0 l 1
 320 0 l 1
 256 0 l 1
 192 0 l 1
 128 0 l 1
 128 64 l 1
 64 64 l 1
 64 128 l 1
 0 128 l 1
 0 192 l 1
 0 256 l 1
 64 256 l 1
 128 256 l 1
 128 192 l 1
 192 192 l 1
 192 128 l 1
 256 128 l 1
 320 128 l 1
 384 128 l 1
 448 128 l 1
 448 192 l 1
 512 192 l 1
 512 256 l 1
 512 320 l 1
 512 384 l 1
 512 448 l 1
 512 512 l 1
 512 576 l 1
 512 640 l 1
 512 704 l 1
 512 768 l 1
 512 832 l 1
 512 896 l 1
EndSplineSet
EndChar

StartChar: K
Encoding: 75 75 43
Width: 768
Flags: HW
LayerCount: 2
Fore
SplineSet
0 896 m 1
 64 896 l 1
 128 896 l 1
 128 832 l 1
 128 768 l 1
 128 704 l 1
 128 640 l 1
 128 576 l 1
 128 512 l 1
 192 512 l 1
 256 512 l 1
 256 576 l 1
 320 576 l 1
 320 640 l 1
 384 640 l 1
 384 704 l 1
 448 704 l 1
 448 768 l 1
 512 768 l 1
 512 832 l 1
 512 896 l 1
 576 896 l 1
 640 896 l 1
 640 832 l 1
 640 768 l 1
 640 704 l 1
 576 704 l 1
 576 640 l 1
 512 640 l 1
 512 576 l 1
 448 576 l 1
 448 512 l 1
 384 512 l 1
 384 448 l 1
 384 384 l 1
 448 384 l 1
 448 320 l 1
 512 320 l 1
 512 256 l 1
 576 256 l 1
 576 192 l 1
 640 192 l 1
 640 128 l 1
 640 64 l 1
 640 0 l 1
 576 0 l 1
 512 0 l 1
 512 64 l 1
 512 128 l 1
 448 128 l 1
 448 192 l 1
 384 192 l 1
 384 256 l 1
 320 256 l 1
 320 320 l 1
 256 320 l 1
 256 384 l 1
 192 384 l 1
 128 384 l 1
 128 320 l 1
 128 256 l 1
 128 192 l 1
 128 128 l 1
 128 64 l 1
 128 0 l 1
 64 0 l 1
 0 0 l 1
 0 64 l 1
 0 128 l 1
 0 192 l 1
 0 256 l 1
 0 320 l 1
 0 384 l 1
 0 448 l 1
 0 512 l 1
 0 576 l 1
 0 640 l 1
 0 704 l 1
 0 768 l 1
 0 832 l 1
 0 896 l 1
EndSplineSet
EndChar

StartChar: L
Encoding: 76 76 44
Width: 768
Flags: HW
LayerCount: 2
Fore
SplineSet
0 896 m 1
 64 896 l 1
 128 896 l 1
 128 832 l 1
 128 768 l 1
 128 704 l 1
 128 640 l 1
 128 576 l 1
 128 512 l 1
 128 448 l 1
 128 384 l 1
 128 320 l 1
 128 256 l 1
 128 192 l 1
 128 128 l 1
 192 128 l 1
 256 128 l 1
 320 128 l 1
 384 128 l 1
 448 128 l 1
 512 128 l 1
 576 128 l 1
 640 128 l 1
 640 64 l 1
 640 0 l 1
 576 0 l 1
 512 0 l 1
 448 0 l 1
 384 0 l 1
 320 0 l 1
 256 0 l 1
 192 0 l 1
 128 0 l 1
 64 0 l 1
 0 0 l 1
 0 64 l 1
 0 128 l 1
 0 192 l 1
 0 256 l 1
 0 320 l 1
 0 384 l 1
 0 448 l 1
 0 512 l 1
 0 576 l 1
 0 640 l 1
 0 704 l 1
 0 768 l 1
 0 832 l 1
 0 896 l 1
EndSplineSet
EndChar

StartChar: M
Encoding: 77 77 45
Width: 768
Flags: HW
LayerCount: 2
Fore
SplineSet
0 896 m 1
 64 896 l 1
 128 896 l 1
 128 832 l 1
 192 832 l 1
 192 768 l 1
 256 768 l 1
 256 704 l 1
 320 704 l 1
 384 704 l 1
 384 768 l 1
 448 768 l 1
 448 832 l 1
 512 832 l 1
 512 896 l 1
 576 896 l 1
 640 896 l 1
 640 832 l 1
 640 768 l 1
 640 704 l 1
 640 640 l 1
 640 576 l 1
 640 512 l 1
 640 448 l 1
 640 384 l 1
 640 320 l 1
 640 256 l 1
 640 192 l 1
 640 128 l 1
 640 64 l 1
 640 0 l 1
 576 0 l 1
 512 0 l 1
 512 64 l 1
 512 128 l 1
 512 192 l 1
 512 256 l 1
 512 320 l 1
 512 384 l 1
 512 448 l 1
 512 512 l 1
 512 576 l 1
 512 640 l 1
 448 640 l 1
 448 576 l 1
 384 576 l 1
 384 512 l 1
 320 512 l 1
 256 512 l 1
 256 576 l 1
 192 576 l 1
 192 640 l 1
 128 640 l 1
 128 576 l 1
 128 512 l 1
 128 448 l 1
 128 384 l 1
 128 320 l 1
 128 256 l 1
 128 192 l 1
 128 128 l 1
 128 64 l 1
 128 0 l 1
 64 0 l 1
 0 0 l 1
 0 64 l 1
 0 128 l 1
 0 192 l 1
 0 256 l 1
 0 320 l 1
 0 384 l 1
 0 448 l 1
 0 512 l 1
 0 576 l 1
 0 640 l 1
 0 704 l 1
 0 768 l 1
 0 832 l 1
 0 896 l 1
EndSplineSet
EndChar

StartChar: N
Encoding: 78 78 46
Width: 768
Flags: HW
LayerCount: 2
Fore
SplineSet
0 896 m 1
 64 896 l 1
 128 896 l 1
 128 832 l 1
 192 832 l 1
 192 768 l 1
 256 768 l 1
 256 704 l 1
 320 704 l 1
 320 640 l 1
 384 640 l 1
 384 576 l 1
 448 576 l 1
 448 512 l 1
 512 512 l 1
 512 576 l 1
 512 640 l 1
 512 704 l 1
 512 768 l 1
 512 832 l 1
 512 896 l 1
 576 896 l 1
 640 896 l 1
 640 832 l 1
 640 768 l 1
 640 704 l 1
 640 640 l 1
 640 576 l 1
 640 512 l 1
 640 448 l 1
 640 384 l 1
 640 320 l 1
 640 256 l 1
 640 192 l 1
 640 128 l 1
 640 64 l 1
 640 0 l 1
 576 0 l 1
 512 0 l 1
 512 64 l 1
 512 128 l 1
 512 192 l 1
 512 256 l 1
 512 320 l 1
 448 320 l 1
 448 384 l 1
 384 384 l 1
 384 448 l 1
 320 448 l 1
 320 512 l 1
 256 512 l 1
 256 576 l 1
 192 576 l 1
 192 640 l 1
 128 640 l 1
 128 576 l 1
 128 512 l 1
 128 448 l 1
 128 384 l 1
 128 320 l 1
 128 256 l 1
 128 192 l 1
 128 128 l 1
 128 64 l 1
 128 0 l 1
 64 0 l 1
 0 0 l 1
 0 64 l 1
 0 128 l 1
 0 192 l 1
 0 256 l 1
 0 320 l 1
 0 384 l 1
 0 448 l 1
 0 512 l 1
 0 576 l 1
 0 640 l 1
 0 704 l 1
 0 768 l 1
 0 832 l 1
 0 896 l 1
EndSplineSet
EndChar

StartChar: O
Encoding: 79 79 47
Width: 768
Flags: HW
LayerCount: 2
Fore
SplineSet
64 896 m 1
 128 896 l 1
 192 896 l 1
 256 896 l 1
 320 896 l 1
 384 896 l 1
 448 896 l 1
 512 896 l 1
 576 896 l 1
 576 832 l 1
 640 832 l 1
 640 768 l 1
 640 704 l 1
 640 640 l 1
 640 576 l 1
 640 512 l 1
 640 448 l 1
 640 384 l 1
 640 320 l 1
 640 256 l 1
 640 192 l 1
 640 128 l 1
 640 64 l 1
 576 64 l 1
 576 0 l 1
 512 0 l 1
 448 0 l 1
 384 0 l 1
 320 0 l 1
 256 0 l 1
 192 0 l 1
 128 0 l 1
 64 0 l 1
 64 64 l 1
 0 64 l 1
 0 128 l 1
 0 192 l 1
 0 256 l 1
 0 320 l 1
 0 384 l 1
 0 448 l 1
 0 512 l 1
 0 576 l 1
 0 640 l 1
 0 704 l 1
 0 768 l 1
 0 832 l 1
 64 832 l 1
 64 896 l 1
128 768 m 1
 128 704 l 1
 128 640 l 1
 128 576 l 1
 128 512 l 1
 128 448 l 1
 128 384 l 1
 128 320 l 1
 128 256 l 1
 128 192 l 1
 128 128 l 1
 192 128 l 1
 256 128 l 1
 320 128 l 1
 384 128 l 1
 448 128 l 1
 512 128 l 1
 512 192 l 1
 512 256 l 1
 512 320 l 1
 512 384 l 1
 512 448 l 1
 512 512 l 1
 512 576 l 1
 512 640 l 1
 512 704 l 1
 512 768 l 1
 448 768 l 1
 384 768 l 1
 320 768 l 1
 256 768 l 1
 192 768 l 1
 128 768 l 1
EndSplineSet
EndChar

StartChar: P
Encoding: 80 80 48
Width: 768
Flags: HW
LayerCount: 2
Fore
SplineSet
0 896 m 1
 64 896 l 1
 128 896 l 1
 192 896 l 1
 256 896 l 1
 320 896 l 1
 384 896 l 1
 448 896 l 1
 512 896 l 1
 576 896 l 1
 576 832 l 1
 640 832 l 1
 640 768 l 1
 640 704 l 1
 640 640 l 1
 640 576 l 1
 640 512 l 1
 640 448 l 1
 576 448 l 1
 576 384 l 1
 512 384 l 1
 448 384 l 1
 384 384 l 1
 320 384 l 1
 256 384 l 1
 192 384 l 1
 128 384 l 1
 128 320 l 1
 128 256 l 1
 128 192 l 1
 128 128 l 1
 128 64 l 1
 128 0 l 1
 64 0 l 1
 0 0 l 1
 0 64 l 1
 0 128 l 1
 0 192 l 1
 0 256 l 1
 0 320 l 1
 0 384 l 1
 0 448 l 1
 0 512 l 1
 0 576 l 1
 0 640 l 1
 0 704 l 1
 0 768 l 1
 0 832 l 1
 0 896 l 1
128 768 m 1
 128 704 l 1
 128 640 l 1
 128 576 l 1
 128 512 l 1
 192 512 l 1
 256 512 l 1
 320 512 l 1
 384 512 l 1
 448 512 l 1
 512 512 l 1
 512 576 l 1
 512 640 l 1
 512 704 l 1
 512 768 l 1
 448 768 l 1
 384 768 l 1
 320 768 l 1
 256 768 l 1
 192 768 l 1
 128 768 l 1
EndSplineSet
EndChar

StartChar: Q
Encoding: 81 81 49
Width: 768
Flags: HW
LayerCount: 2
Fore
SplineSet
64 896 m 1
 128 896 l 1
 192 896 l 1
 256 896 l 1
 320 896 l 1
 384 896 l 1
 448 896 l 1
 512 896 l 1
 576 896 l 1
 576 832 l 1
 640 832 l 1
 640 768 l 1
 640 704 l 1
 640 640 l 1
 640 576 l 1
 640 512 l 1
 640 448 l 1
 640 384 l 1
 640 320 l 1
 640 256 l 1
 640 192 l 1
 576 192 l 1
 576 128 l 1
 640 128 l 1
 640 64 l 1
 640 0 l 1
 576 0 l 1
 512 0 l 1
 512 64 l 1
 448 64 l 1
 448 0 l 1
 384 0 l 1
 320 0 l 1
 256 0 l 1
 192 0 l 1
 128 0 l 1
 64 0 l 1
 64 64 l 1
 0 64 l 1
 0 128 l 1
 0 192 l 1
 0 256 l 1
 0 320 l 1
 0 384 l 1
 0 448 l 1
 0 512 l 1
 0 576 l 1
 0 640 l 1
 0 704 l 1
 0 768 l 1
 0 832 l 1
 64 832 l 1
 64 896 l 1
128 768 m 1
 128 704 l 1
 128 640 l 1
 128 576 l 1
 128 512 l 1
 128 448 l 1
 128 384 l 1
 128 320 l 1
 128 256 l 1
 128 192 l 1
 128 128 l 1
 192 128 l 1
 256 128 l 1
 320 128 l 1
 384 128 l 1
 384 192 l 1
 320 192 l 1
 320 256 l 1
 320 320 l 1
 384 320 l 1
 448 320 l 1
 448 256 l 1
 512 256 l 1
 512 320 l 1
 512 384 l 1
 512 448 l 1
 512 512 l 1
 512 576 l 1
 512 640 l 1
 512 704 l 1
 512 768 l 1
 448 768 l 1
 384 768 l 1
 320 768 l 1
 256 768 l 1
 192 768 l 1
 128 768 l 1
EndSplineSet
EndChar

StartChar: R
Encoding: 82 82 50
Width: 768
Flags: HW
LayerCount: 2
Fore
SplineSet
0 896 m 1
 64 896 l 1
 128 896 l 1
 192 896 l 1
 256 896 l 1
 320 896 l 1
 384 896 l 1
 448 896 l 1
 512 896 l 1
 576 896 l 1
 576 832 l 1
 640 832 l 1
 640 768 l 1
 640 704 l 1
 640 640 l 1
 640 576 l 1
 640 512 l 1
 576 512 l 1
 576 448 l 1
 512 448 l 1
 448 448 l 1
 384 448 l 1
 320 448 l 1
 256 448 l 1
 256 384 l 1
 320 384 l 1
 320 320 l 1
 384 320 l 1
 384 256 l 1
 448 256 l 1
 448 192 l 1
 512 192 l 1
 512 128 l 1
 576 128 l 1
 576 64 l 1
 640 64 l 1
 640 0 l 1
 576 0 l 1
 512 0 l 1
 448 0 l 1
 448 64 l 1
 384 64 l 1
 384 128 l 1
 320 128 l 1
 320 192 l 1
 256 192 l 1
 256 256 l 1
 192 256 l 1
 192 320 l 1
 128 320 l 1
 128 256 l 1
 128 192 l 1
 128 128 l 1
 128 64 l 1
 128 0 l 1
 64 0 l 1
 0 0 l 1
 0 64 l 1
 0 128 l 1
 0 192 l 1
 0 256 l 1
 0 320 l 1
 0 384 l 1
 0 448 l 1
 0 512 l 1
 0 576 l 1
 0 640 l 1
 0 704 l 1
 0 768 l 1
 0 832 l 1
 0 896 l 1
128 768 m 1
 128 704 l 1
 128 640 l 1
 128 576 l 1
 192 576 l 1
 256 576 l 1
 320 576 l 1
 384 576 l 1
 448 576 l 1
 512 576 l 1
 512 640 l 1
 512 704 l 1
 512 768 l 1
 448 768 l 1
 384 768 l 1
 320 768 l 1
 256 768 l 1
 192 768 l 1
 128 768 l 1
EndSplineSet
EndChar

StartChar: S
Encoding: 83 83 51
Width: 768
Flags: HW
LayerCount: 2
Fore
SplineSet
64 896 m 1
 128 896 l 1
 192 896 l 1
 256 896 l 1
 320 896 l 1
 384 896 l 1
 448 896 l 1
 512 896 l 1
 576 896 l 1
 576 832 l 1
 640 832 l 1
 640 768 l 1
 576 768 l 1
 512 768 l 1
 448 768 l 1
 384 768 l 1
 320 768 l 1
 256 768 l 1
 192 768 l 1
 128 768 l 1
 128 704 l 1
 128 640 l 1
 128 576 l 1
 128 512 l 1
 192 512 l 1
 256 512 l 1
 320 512 l 1
 384 512 l 1
 448 512 l 1
 512 512 l 1
 576 512 l 1
 576 448 l 1
 640 448 l 1
 640 384 l 1
 640 320 l 1
 640 256 l 1
 640 192 l 1
 640 128 l 1
 640 64 l 1
 576 64 l 1
 576 0 l 1
 512 0 l 1
 448 0 l 1
 384 0 l 1
 320 0 l 1
 256 0 l 1
 192 0 l 1
 128 0 l 1
 64 0 l 1
 64 64 l 1
 0 64 l 1
 0 128 l 1
 64 128 l 1
 128 128 l 1
 192 128 l 1
 256 128 l 1
 320 128 l 1
 384 128 l 1
 448 128 l 1
 512 128 l 1
 512 192 l 1
 512 256 l 1
 512 320 l 1
 512 384 l 1
 448 384 l 1
 384 384 l 1
 320 384 l 1
 256 384 l 1
 192 384 l 1
 128 384 l 1
 64 384 l 1
 64 448 l 1
 0 448 l 1
 0 512 l 1
 0 576 l 1
 0 640 l 1
 0 704 l 1
 0 768 l 1
 0 832 l 1
 64 832 l 1
 64 896 l 1
EndSplineSet
EndChar

StartChar: T
Encoding: 84 84 52
Width: 768
Flags: HW
LayerCount: 2
Fore
SplineSet
0 896 m 1
 64 896 l 1
 128 896 l 1
 192 896 l 1
 256 896 l 1
 320 896 l 1
 384 896 l 1
 448 896 l 1
 512 896 l 1
 576 896 l 1
 640 896 l 1
 640 832 l 1
 640 768 l 1
 576 768 l 1
 512 768 l 1
 448 768 l 1
 384 768 l 1
 384 704 l 1
 384 640 l 1
 384 576 l 1
 384 512 l 1
 384 448 l 1
 384 384 l 1
 384 320 l 1
 384 256 l 1
 384 192 l 1
 384 128 l 1
 384 64 l 1
 384 0 l 1
 320 0 l 1
 256 0 l 1
 256 64 l 1
 256 128 l 1
 256 192 l 1
 256 256 l 1
 256 320 l 1
 256 384 l 1
 256 448 l 1
 256 512 l 1
 256 576 l 1
 256 640 l 1
 256 704 l 1
 256 768 l 1
 192 768 l 1
 128 768 l 1
 64 768 l 1
 0 768 l 1
 0 832 l 1
 0 896 l 1
EndSplineSet
EndChar

StartChar: U
Encoding: 85 85 53
Width: 768
Flags: HW
LayerCount: 2
Fore
SplineSet
0 896 m 1
 64 896 l 1
 128 896 l 1
 128 832 l 1
 128 768 l 1
 128 704 l 1
 128 640 l 1
 128 576 l 1
 128 512 l 1
 128 448 l 1
 128 384 l 1
 128 320 l 1
 128 256 l 1
 128 192 l 1
 128 128 l 1
 192 128 l 1
 256 128 l 1
 320 128 l 1
 384 128 l 1
 448 128 l 1
 512 128 l 1
 512 192 l 1
 512 256 l 1
 512 320 l 1
 512 384 l 1
 512 448 l 1
 512 512 l 1
 512 576 l 1
 512 640 l 1
 512 704 l 1
 512 768 l 1
 512 832 l 1
 512 896 l 1
 576 896 l 1
 640 896 l 1
 640 832 l 1
 640 768 l 1
 640 704 l 1
 640 640 l 1
 640 576 l 1
 640 512 l 1
 640 448 l 1
 640 384 l 1
 640 320 l 1
 640 256 l 1
 640 192 l 1
 640 128 l 1
 640 64 l 1
 576 64 l 1
 576 0 l 1
 512 0 l 1
 448 0 l 1
 384 0 l 1
 320 0 l 1
 256 0 l 1
 192 0 l 1
 128 0 l 1
 64 0 l 1
 64 64 l 1
 0 64 l 1
 0 128 l 1
 0 192 l 1
 0 256 l 1
 0 320 l 1
 0 384 l 1
 0 448 l 1
 0 512 l 1
 0 576 l 1
 0 640 l 1
 0 704 l 1
 0 768 l 1
 0 832 l 1
 0 896 l 1
EndSplineSet
EndChar

StartChar: V
Encoding: 86 86 54
Width: 768
Flags: HW
LayerCount: 2
Fore
SplineSet
0 896 m 1
 64 896 l 1
 128 896 l 1
 128 832 l 1
 128 768 l 1
 128 704 l 1
 128 640 l 1
 128 576 l 1
 128 512 l 1
 128 448 l 1
 128 384 l 1
 128 320 l 1
 192 320 l 1
 192 256 l 1
 256 256 l 1
 256 192 l 1
 320 192 l 1
 384 192 l 1
 384 256 l 1
 448 256 l 1
 448 320 l 1
 512 320 l 1
 512 384 l 1
 512 448 l 1
 512 512 l 1
 512 576 l 1
 512 640 l 1
 512 704 l 1
 512 768 l 1
 512 832 l 1
 512 896 l 1
 576 896 l 1
 640 896 l 1
 640 832 l 1
 640 768 l 1
 640 704 l 1
 640 640 l 1
 640 576 l 1
 640 512 l 1
 640 448 l 1
 640 384 l 1
 640 320 l 1
 640 256 l 1
 576 256 l 1
 576 192 l 1
 512 192 l 1
 512 128 l 1
 448 128 l 1
 448 64 l 1
 384 64 l 1
 384 0 l 1
 320 0 l 1
 256 0 l 1
 256 64 l 1
 192 64 l 1
 192 128 l 1
 128 128 l 1
 128 192 l 1
 64 192 l 1
 64 256 l 1
 0 256 l 1
 0 320 l 1
 0 384 l 1
 0 448 l 1
 0 512 l 1
 0 576 l 1
 0 640 l 1
 0 704 l 1
 0 768 l 1
 0 832 l 1
 0 896 l 1
EndSplineSet
EndChar

StartChar: W
Encoding: 87 87 55
Width: 768
Flags: HW
LayerCount: 2
Fore
SplineSet
0 896 m 1
 64 896 l 1
 128 896 l 1
 128 832 l 1
 128 768 l 1
 128 704 l 1
 128 640 l 1
 128 576 l 1
 128 512 l 1
 128 448 l 1
 128 384 l 1
 128 320 l 1
 128 256 l 1
 128 192 l 1
 192 192 l 1
 192 256 l 1
 256 256 l 1
 256 320 l 1
 320 320 l 1
 384 320 l 1
 384 256 l 1
 448 256 l 1
 448 192 l 1
 512 192 l 1
 512 256 l 1
 512 320 l 1
 512 384 l 1
 512 448 l 1
 512 512 l 1
 512 576 l 1
 512 640 l 1
 512 704 l 1
 512 768 l 1
 512 832 l 1
 512 896 l 1
 576 896 l 1
 640 896 l 1
 640 832 l 1
 640 768 l 1
 640 704 l 1
 640 640 l 1
 640 576 l 1
 640 512 l 1
 640 448 l 1
 640 384 l 1
 640 320 l 1
 640 256 l 1
 640 192 l 1
 640 128 l 1
 640 64 l 1
 640 0 l 1
 576 0 l 1
 512 0 l 1
 448 0 l 1
 448 64 l 1
 384 64 l 1
 384 128 l 1
 320 128 l 1
 256 128 l 1
 256 64 l 1
 192 64 l 1
 192 0 l 1
 128 0 l 1
 64 0 l 1
 0 0 l 1
 0 64 l 1
 0 128 l 1
 0 192 l 1
 0 256 l 1
 0 320 l 1
 0 384 l 1
 0 448 l 1
 0 512 l 1
 0 576 l 1
 0 640 l 1
 0 704 l 1
 0 768 l 1
 0 832 l 1
 0 896 l 1
EndSplineSet
EndChar

StartChar: X
Encoding: 88 88 56
Width: 768
Flags: HW
LayerCount: 2
Fore
SplineSet
0 896 m 1
 64 896 l 1
 128 896 l 1
 128 832 l 1
 128 768 l 1
 128 704 l 1
 192 704 l 1
 192 640 l 1
 256 640 l 1
 256 576 l 1
 320 576 l 1
 384 576 l 1
 384 640 l 1
 448 640 l 1
 448 704 l 1
 512 704 l 1
 512 768 l 1
 512 832 l 1
 512 896 l 1
 576 896 l 1
 640 896 l 1
 640 832 l 1
 640 768 l 1
 640 704 l 1
 640 640 l 1
 576 640 l 1
 576 576 l 1
 512 576 l 1
 512 512 l 1
 448 512 l 1
 448 448 l 1
 448 384 l 1
 512 384 l 1
 512 320 l 1
 576 320 l 1
 576 256 l 1
 640 256 l 1
 640 192 l 1
 640 128 l 1
 640 64 l 1
 640 0 l 1
 576 0 l 1
 512 0 l 1
 512 64 l 1
 512 128 l 1
 512 192 l 1
 448 192 l 1
 448 256 l 1
 384 256 l 1
 384 320 l 1
 320 320 l 1
 256 320 l 1
 256 256 l 1
 192 256 l 1
 192 192 l 1
 128 192 l 1
 128 128 l 1
 128 64 l 1
 128 0 l 1
 64 0 l 1
 0 0 l 1
 0 64 l 1
 0 128 l 1
 0 192 l 1
 0 256 l 1
 64 256 l 1
 64 320 l 1
 128 320 l 1
 128 384 l 1
 192 384 l 1
 192 448 l 1
 192 512 l 1
 128 512 l 1
 128 576 l 1
 64 576 l 1
 64 640 l 1
 0 640 l 1
 0 704 l 1
 0 768 l 1
 0 832 l 1
 0 896 l 1
EndSplineSet
EndChar

StartChar: Y
Encoding: 89 89 57
Width: 768
Flags: HW
LayerCount: 2
Fore
SplineSet
0 896 m 1
 64 896 l 1
 128 896 l 1
 128 832 l 1
 128 768 l 1
 128 704 l 1
 192 704 l 1
 192 640 l 1
 256 640 l 1
 256 576 l 1
 320 576 l 1
 384 576 l 1
 384 640 l 1
 448 640 l 1
 448 704 l 1
 512 704 l 1
 512 768 l 1
 512 832 l 1
 512 896 l 1
 576 896 l 1
 640 896 l 1
 640 832 l 1
 640 768 l 1
 640 704 l 1
 640 640 l 1
 576 640 l 1
 576 576 l 1
 512 576 l 1
 512 512 l 1
 448 512 l 1
 448 448 l 1
 384 448 l 1
 384 384 l 1
 384 320 l 1
 384 256 l 1
 384 192 l 1
 384 128 l 1
 384 64 l 1
 384 0 l 1
 320 0 l 1
 256 0 l 1
 256 64 l 1
 256 128 l 1
 256 192 l 1
 256 256 l 1
 256 320 l 1
 256 384 l 1
 256 448 l 1
 192 448 l 1
 192 512 l 1
 128 512 l 1
 128 576 l 1
 64 576 l 1
 64 640 l 1
 0 640 l 1
 0 704 l 1
 0 768 l 1
 0 832 l 1
 0 896 l 1
EndSplineSet
EndChar

StartChar: Z
Encoding: 90 90 58
Width: 768
Flags: HW
LayerCount: 2
Fore
SplineSet
0 896 m 1
 64 896 l 1
 128 896 l 1
 192 896 l 1
 256 896 l 1
 320 896 l 1
 384 896 l 1
 448 896 l 1
 512 896 l 1
 576 896 l 1
 640 896 l 1
 640 832 l 1
 640 768 l 1
 640 704 l 1
 640 640 l 1
 576 640 l 1
 576 576 l 1
 512 576 l 1
 512 512 l 1
 448 512 l 1
 448 448 l 1
 384 448 l 1
 384 384 l 1
 320 384 l 1
 320 320 l 1
 256 320 l 1
 256 256 l 1
 192 256 l 1
 192 192 l 1
 128 192 l 1
 128 128 l 1
 192 128 l 1
 256 128 l 1
 320 128 l 1
 384 128 l 1
 448 128 l 1
 512 128 l 1
 576 128 l 1
 640 128 l 1
 640 64 l 1
 640 0 l 1
 576 0 l 1
 512 0 l 1
 448 0 l 1
 384 0 l 1
 320 0 l 1
 256 0 l 1
 192 0 l 1
 128 0 l 1
 64 0 l 1
 0 0 l 1
 0 64 l 1
 0 128 l 1
 0 192 l 1
 0 256 l 1
 64 256 l 1
 64 320 l 1
 128 320 l 1
 128 384 l 1
 192 384 l 1
 192 448 l 1
 256 448 l 1
 256 512 l 1
 320 512 l 1
 320 576 l 1
 384 576 l 1
 384 640 l 1
 448 640 l 1
 448 704 l 1
 512 704 l 1
 512 768 l 1
 448 768 l 1
 384 768 l 1
 320 768 l 1
 256 768 l 1
 192 768 l 1
 128 768 l 1
 64 768 l 1
 0 768 l 1
 0 832 l 1
 0 896 l 1
EndSplineSet
EndChar

StartChar: bracketleft
Encoding: 91 91 59
Width: 448
Flags: HW
LayerCount: 2
Fore
SplineSet
0 896 m 1
 64 896 l 1
 128 896 l 1
 192 896 l 1
 256 896 l 1
 320 896 l 1
 320 832 l 1
 320 768 l 1
 256 768 l 1
 192 768 l 1
 128 768 l 1
 128 704 l 1
 128 640 l 1
 128 576 l 1
 128 512 l 1
 128 448 l 1
 128 384 l 1
 128 320 l 1
 128 256 l 1
 128 192 l 1
 128 128 l 1
 192 128 l 1
 256 128 l 1
 320 128 l 1
 320 64 l 1
 320 0 l 1
 256 0 l 1
 192 0 l 1
 128 0 l 1
 64 0 l 1
 0 0 l 1
 0 64 l 1
 0 128 l 1
 0 192 l 1
 0 256 l 1
 0 320 l 1
 0 384 l 1
 0 448 l 1
 0 512 l 1
 0 576 l 1
 0 640 l 1
 0 704 l 1
 0 768 l 1
 0 832 l 1
 0 896 l 1
EndSplineSet
EndChar

StartChar: backslash
Encoding: 92 92 60
Width: 768
Flags: HW
LayerCount: 2
Fore
SplineSet
0 896 m 1
 64 896 l 1
 128 896 l 1
 128 832 l 1
 192 832 l 1
 192 768 l 1
 192 704 l 1
 256 704 l 1
 256 640 l 1
 320 640 l 1
 320 576 l 1
 320 512 l 1
 384 512 l 1
 384 448 l 1
 448 448 l 1
 448 384 l 1
 448 320 l 1
 512 320 l 1
 512 256 l 1
 576 256 l 1
 576 192 l 1
 576 128 l 1
 640 128 l 1
 640 64 l 1
 640 0 l 1
 576 0 l 1
 512 0 l 1
 512 64 l 1
 448 64 l 1
 448 128 l 1
 448 192 l 1
 384 192 l 1
 384 256 l 1
 320 256 l 1
 320 320 l 1
 320 384 l 1
 256 384 l 1
 256 448 l 1
 192 448 l 1
 192 512 l 1
 192 576 l 1
 128 576 l 1
 128 640 l 1
 64 640 l 1
 64 704 l 1
 64 768 l 1
 0 768 l 1
 0 832 l 1
 0 896 l 1
EndSplineSet
EndChar

StartChar: bracketright
Encoding: 93 93 61
Width: 448
Flags: HW
LayerCount: 2
Fore
SplineSet
0 896 m 1
 64 896 l 1
 128 896 l 1
 192 896 l 1
 256 896 l 1
 320 896 l 5
 320 832 l 1
 320 768 l 1
 320 704 l 1
 320 640 l 1
 320 576 l 1
 320 512 l 1
 320 448 l 1
 320 384 l 1
 320 320 l 1
 320 256 l 1
 320 192 l 1
 320 128 l 1
 320 64 l 1
 320 0 l 1
 256 0 l 1
 192 0 l 1
 128 0 l 1
 64 0 l 1
 0 0 l 1
 0 64 l 1
 0 128 l 1
 64 128 l 1
 128 128 l 1
 192 128 l 1
 192 192 l 1
 192 256 l 1
 192 320 l 1
 192 384 l 1
 192 448 l 1
 192 512 l 1
 192 576 l 1
 192 640 l 1
 192 704 l 1
 192 768 l 1
 128 768 l 1
 64 768 l 1
 0 768 l 1
 0 832 l 1
 0 896 l 1
EndSplineSet
EndChar

StartChar: asciicircum
Encoding: 94 94 62
Width: 768
Flags: HW
LayerCount: 2
Fore
SplineSet
256 896 m 1
 320 896 l 1
 384 896 l 1
 384 832 l 1
 448 832 l 1
 448 768 l 1
 512 768 l 1
 512 704 l 1
 576 704 l 1
 576 640 l 1
 640 640 l 1
 640 576 l 1
 640 512 l 1
 576 512 l 1
 512 512 l 1
 512 576 l 1
 448 576 l 1
 448 640 l 1
 384 640 l 1
 384 704 l 1
 320 704 l 1
 256 704 l 1
 256 640 l 1
 192 640 l 1
 192 576 l 1
 128 576 l 1
 128 512 l 1
 64 512 l 1
 0 512 l 1
 0 576 l 1
 0 640 l 1
 64 640 l 1
 64 704 l 1
 128 704 l 1
 128 768 l 1
 192 768 l 1
 192 832 l 1
 256 832 l 1
 256 896 l 1
EndSplineSet
EndChar

StartChar: underscore
Encoding: 95 95 63
Width: 768
Flags: HW
LayerCount: 2
Fore
SplineSet
0 128 m 1
 64 128 l 1
 128 128 l 1
 192 128 l 1
 256 128 l 1
 320 128 l 1
 384 128 l 1
 448 128 l 1
 512 128 l 1
 576 128 l 1
 640 128 l 1
 640 64 l 1
 640 0 l 1
 576 0 l 1
 512 0 l 1
 448 0 l 1
 384 0 l 1
 320 0 l 1
 256 0 l 1
 192 0 l 1
 128 0 l 1
 64 0 l 1
 0 0 l 1
 0 64 l 1
 0 128 l 1
EndSplineSet
EndChar

StartChar: grave
Encoding: 96 96 64
Width: 384
Flags: HW
LayerCount: 2
Fore
SplineSet
0 896 m 1
 64 896 l 1
 128 896 l 1
 128 832 l 1
 192 832 l 1
 192 768 l 1
 256 768 l 1
 256 704 l 1
 256 640 l 1
 192 640 l 1
 128 640 l 1
 128 704 l 1
 64 704 l 1
 64 768 l 1
 0 768 l 1
 0 832 l 1
 0 896 l 1
EndSplineSet
EndChar

StartChar: a
Encoding: 97 97 65
Width: 768
Flags: HW
LayerCount: 2
Fore
SplineSet
64 640 m 1
 128 640 l 1
 192 640 l 1
 256 640 l 1
 320 640 l 1
 384 640 l 1
 448 640 l 1
 512 640 l 1
 576 640 l 1
 576 576 l 1
 640 576 l 1
 640 512 l 1
 640 448 l 1
 640 384 l 1
 640 320 l 1
 640 256 l 1
 640 192 l 1
 640 128 l 1
 640 64 l 1
 576 64 l 1
 576 0 l 1
 512 0 l 1
 448 0 l 1
 384 0 l 1
 320 0 l 1
 256 0 l 1
 192 0 l 1
 128 0 l 1
 64 0 l 1
 64 64 l 1
 0 64 l 1
 0 128 l 1
 0 192 l 1
 0 256 l 1
 0 320 l 1
 64 320 l 1
 64 384 l 1
 128 384 l 1
 192 384 l 1
 256 384 l 1
 320 384 l 1
 384 384 l 1
 448 384 l 1
 512 384 l 1
 512 448 l 1
 512 512 l 1
 448 512 l 1
 384 512 l 1
 320 512 l 1
 256 512 l 1
 192 512 l 1
 128 512 l 1
 64 512 l 1
 0 512 l 1
 0 576 l 1
 64 576 l 1
 64 640 l 1
128 256 m 1
 128 192 l 1
 128 128 l 1
 192 128 l 1
 256 128 l 1
 320 128 l 1
 384 128 l 1
 448 128 l 1
 512 128 l 1
 512 192 l 1
 512 256 l 1
 448 256 l 1
 384 256 l 1
 320 256 l 1
 256 256 l 1
 192 256 l 1
 128 256 l 1
EndSplineSet
EndChar

StartChar: b
Encoding: 98 98 66
Width: 768
Flags: HW
LayerCount: 2
Fore
SplineSet
0 896 m 1
 64 896 l 1
 128 896 l 1
 128 832 l 1
 128 768 l 1
 128 704 l 1
 128 640 l 1
 192 640 l 1
 256 640 l 1
 320 640 l 1
 384 640 l 1
 448 640 l 1
 512 640 l 1
 576 640 l 1
 576 576 l 1
 640 576 l 1
 640 512 l 1
 640 448 l 1
 640 384 l 1
 640 320 l 1
 640 256 l 1
 640 192 l 1
 640 128 l 1
 640 64 l 1
 576 64 l 1
 576 0 l 1
 512 0 l 1
 448 0 l 1
 384 0 l 1
 320 0 l 1
 256 0 l 1
 192 0 l 1
 128 0 l 1
 64 0 l 1
 64 64 l 1
 0 64 l 1
 0 128 l 1
 0 192 l 1
 0 256 l 1
 0 320 l 1
 0 384 l 1
 0 448 l 1
 0 512 l 1
 0 576 l 1
 0 640 l 1
 0 704 l 1
 0 768 l 1
 0 832 l 1
 0 896 l 1
128 512 m 1
 128 448 l 1
 128 384 l 1
 128 320 l 1
 128 256 l 1
 128 192 l 1
 128 128 l 1
 192 128 l 1
 256 128 l 1
 320 128 l 1
 384 128 l 1
 448 128 l 1
 512 128 l 1
 512 192 l 1
 512 256 l 1
 512 320 l 1
 512 384 l 1
 512 448 l 1
 512 512 l 1
 448 512 l 1
 384 512 l 1
 320 512 l 1
 256 512 l 1
 192 512 l 1
 128 512 l 1
EndSplineSet
EndChar

StartChar: c
Encoding: 99 99 67
Width: 768
Flags: HW
LayerCount: 2
Fore
SplineSet
64 640 m 1
 128 640 l 1
 192 640 l 1
 256 640 l 1
 320 640 l 1
 384 640 l 1
 448 640 l 1
 512 640 l 1
 576 640 l 1
 640 640 l 1
 640 576 l 1
 640 512 l 1
 576 512 l 1
 512 512 l 1
 448 512 l 1
 384 512 l 1
 320 512 l 1
 256 512 l 1
 192 512 l 1
 128 512 l 1
 128 448 l 1
 128 384 l 1
 128 320 l 1
 128 256 l 1
 128 192 l 1
 128 128 l 1
 192 128 l 1
 256 128 l 1
 320 128 l 1
 384 128 l 1
 448 128 l 1
 512 128 l 1
 576 128 l 1
 640 128 l 1
 640 64 l 1
 640 0 l 1
 576 0 l 1
 512 0 l 1
 448 0 l 1
 384 0 l 1
 320 0 l 1
 256 0 l 1
 192 0 l 1
 128 0 l 1
 64 0 l 1
 64 64 l 1
 0 64 l 1
 0 128 l 1
 0 192 l 1
 0 256 l 1
 0 320 l 1
 0 384 l 1
 0 448 l 1
 0 512 l 1
 0 576 l 1
 64 576 l 1
 64 640 l 1
EndSplineSet
EndChar

StartChar: d
Encoding: 100 100 68
Width: 768
Flags: HW
LayerCount: 2
Fore
SplineSet
512 896 m 1
 576 896 l 1
 640 896 l 1
 640 832 l 1
 640 768 l 1
 640 704 l 1
 640 640 l 1
 640 576 l 1
 640 512 l 1
 640 448 l 1
 640 384 l 1
 640 320 l 1
 640 256 l 1
 640 192 l 1
 640 128 l 1
 640 64 l 1
 640 0 l 1
 576 0 l 1
 512 0 l 1
 448 0 l 1
 384 0 l 1
 320 0 l 1
 256 0 l 1
 192 0 l 1
 128 0 l 1
 64 0 l 1
 64 64 l 1
 0 64 l 1
 0 128 l 1
 0 192 l 1
 0 256 l 1
 0 320 l 1
 0 384 l 1
 0 448 l 1
 0 512 l 1
 0 576 l 1
 64 576 l 1
 64 640 l 1
 128 640 l 1
 192 640 l 1
 256 640 l 1
 320 640 l 1
 384 640 l 1
 448 640 l 1
 512 640 l 1
 512 704 l 1
 512 768 l 1
 512 832 l 1
 512 896 l 1
128 512 m 1
 128 448 l 1
 128 384 l 1
 128 320 l 1
 128 256 l 1
 128 192 l 1
 128 128 l 1
 192 128 l 1
 256 128 l 1
 320 128 l 1
 384 128 l 1
 448 128 l 1
 512 128 l 1
 512 192 l 1
 512 256 l 1
 512 320 l 1
 512 384 l 1
 512 448 l 1
 512 512 l 1
 448 512 l 1
 384 512 l 1
 320 512 l 1
 256 512 l 1
 192 512 l 1
 128 512 l 1
EndSplineSet
EndChar

StartChar: e
Encoding: 101 101 69
Width: 768
Flags: HW
LayerCount: 2
Fore
SplineSet
64 640 m 1
 128 640 l 1
 192 640 l 1
 256 640 l 1
 320 640 l 1
 384 640 l 1
 448 640 l 1
 512 640 l 1
 576 640 l 1
 576 576 l 1
 640 576 l 1
 640 512 l 1
 640 448 l 1
 640 384 l 1
 640 320 l 1
 576 320 l 1
 576 256 l 1
 512 256 l 1
 448 256 l 1
 384 256 l 1
 320 256 l 1
 256 256 l 1
 192 256 l 1
 128 256 l 1
 128 192 l 1
 128 128 l 1
 192 128 l 1
 256 128 l 1
 320 128 l 1
 384 128 l 1
 448 128 l 1
 512 128 l 1
 576 128 l 1
 640 128 l 1
 640 64 l 1
 576 64 l 1
 576 0 l 1
 512 0 l 1
 448 0 l 1
 384 0 l 1
 320 0 l 1
 256 0 l 1
 192 0 l 1
 128 0 l 1
 64 0 l 1
 64 64 l 1
 0 64 l 1
 0 128 l 1
 0 192 l 1
 0 256 l 1
 0 320 l 1
 0 384 l 1
 0 448 l 1
 0 512 l 1
 0 576 l 1
 64 576 l 1
 64 640 l 1
128 512 m 1
 128 448 l 1
 128 384 l 1
 192 384 l 1
 256 384 l 1
 320 384 l 1
 384 384 l 1
 448 384 l 1
 512 384 l 1
 512 448 l 1
 512 512 l 1
 448 512 l 1
 384 512 l 1
 320 512 l 1
 256 512 l 1
 192 512 l 1
 128 512 l 1
EndSplineSet
EndChar

StartChar: f
Encoding: 102 102 70
Width: 768
Flags: HW
LayerCount: 2
Fore
SplineSet
320 896 m 1
 384 896 l 1
 448 896 l 1
 512 896 l 1
 576 896 l 1
 640 896 l 1
 640 832 l 1
 640 768 l 1
 576 768 l 1
 512 768 l 1
 448 768 l 1
 384 768 l 1
 384 704 l 1
 384 640 l 1
 448 640 l 1
 512 640 l 1
 576 640 l 1
 640 640 l 1
 640 576 l 1
 640 512 l 1
 576 512 l 1
 512 512 l 1
 448 512 l 1
 384 512 l 1
 384 448 l 1
 384 384 l 1
 384 320 l 1
 384 256 l 1
 384 192 l 1
 384 128 l 1
 384 64 l 1
 384 0 l 1
 320 0 l 1
 256 0 l 1
 256 64 l 1
 256 128 l 1
 256 192 l 1
 256 256 l 1
 256 320 l 1
 256 384 l 1
 256 448 l 1
 256 512 l 1
 192 512 l 1
 128 512 l 1
 64 512 l 1
 0 512 l 1
 0 576 l 1
 0 640 l 1
 64 640 l 1
 128 640 l 1
 192 640 l 1
 256 640 l 1
 256 704 l 1
 256 768 l 1
 256 832 l 1
 320 832 l 1
 320 896 l 1
EndSplineSet
EndChar

StartChar: g
Encoding: 103 103 71
Width: 768
Flags: HW
LayerCount: 2
Fore
SplineSet
64 640 m 1
 128 640 l 1
 192 640 l 1
 256 640 l 1
 320 640 l 1
 384 640 l 1
 448 640 l 1
 512 640 l 1
 576 640 l 1
 576 576 l 1
 640 576 l 1
 640 512 l 1
 640 448 l 1
 640 384 l 1
 640 320 l 1
 640 256 l 1
 640 192 l 1
 640 128 l 1
 640 64 l 1
 640 0 l 1
 640 -64 l 1
 640 -128 l 1
 640 -192 l 1
 576 -192 l 1
 576 -256 l 1
 512 -256 l 1
 448 -256 l 1
 384 -256 l 1
 320 -256 l 1
 256 -256 l 1
 192 -256 l 1
 128 -256 l 1
 64 -256 l 1
 64 -192 l 1
 0 -192 l 1
 0 -128 l 1
 64 -128 l 1
 128 -128 l 1
 192 -128 l 1
 256 -128 l 1
 320 -128 l 1
 384 -128 l 1
 448 -128 l 1
 512 -128 l 1
 512 -64 l 1
 512 0 l 1
 448 0 l 1
 384 0 l 1
 320 0 l 1
 256 0 l 1
 192 0 l 1
 128 0 l 1
 64 0 l 1
 64 64 l 1
 0 64 l 1
 0 128 l 1
 0 192 l 1
 0 256 l 1
 0 320 l 1
 0 384 l 1
 0 448 l 1
 0 512 l 1
 0 576 l 1
 64 576 l 1
 64 640 l 1
128 512 m 1
 128 448 l 1
 128 384 l 1
 128 320 l 1
 128 256 l 1
 128 192 l 1
 128 128 l 1
 192 128 l 1
 256 128 l 1
 320 128 l 1
 384 128 l 1
 448 128 l 1
 512 128 l 1
 512 192 l 1
 512 256 l 1
 512 320 l 1
 512 384 l 1
 512 448 l 1
 512 512 l 1
 448 512 l 1
 384 512 l 1
 320 512 l 1
 256 512 l 1
 192 512 l 1
 128 512 l 1
EndSplineSet
EndChar

StartChar: h
Encoding: 104 104 72
Width: 768
Flags: HW
LayerCount: 2
Fore
SplineSet
0 896 m 1
 64 896 l 1
 128 896 l 1
 128 832 l 1
 128 768 l 1
 128 704 l 1
 128 640 l 1
 192 640 l 1
 256 640 l 1
 320 640 l 1
 384 640 l 1
 448 640 l 1
 512 640 l 1
 512 576 l 1
 576 576 l 1
 576 512 l 1
 640 512 l 1
 640 448 l 1
 640 384 l 1
 640 320 l 1
 640 256 l 1
 640 192 l 1
 640 128 l 1
 640 64 l 1
 640 0 l 1
 576 0 l 1
 512 0 l 1
 512 64 l 1
 512 128 l 1
 512 192 l 1
 512 256 l 1
 512 320 l 1
 512 384 l 1
 512 448 l 1
 448 448 l 1
 448 512 l 1
 384 512 l 1
 320 512 l 1
 256 512 l 1
 192 512 l 1
 192 448 l 1
 128 448 l 1
 128 384 l 1
 128 320 l 1
 128 256 l 1
 128 192 l 1
 128 128 l 1
 128 64 l 1
 128 0 l 1
 64 0 l 1
 0 0 l 1
 0 64 l 1
 0 128 l 1
 0 192 l 1
 0 256 l 1
 0 320 l 1
 0 384 l 1
 0 448 l 1
 0 512 l 1
 0 576 l 1
 0 640 l 1
 0 704 l 1
 0 768 l 1
 0 832 l 1
 0 896 l 1
EndSplineSet
EndChar

StartChar: i
Encoding: 105 105 73
Width: 256
Flags: HW
LayerCount: 2
Fore
SplineSet
0 832 m 1
 64 832 l 1
 128 832 l 1
 128 768 l 1
 128 704 l 1
 64 704 l 1
 0 704 l 1
 0 768 l 1
 0 832 l 1
0 640 m 1
 64 640 l 1
 128 640 l 1
 128 576 l 1
 128 512 l 1
 128 448 l 1
 128 384 l 1
 128 320 l 1
 128 256 l 1
 128 192 l 1
 128 128 l 1
 128 64 l 1
 128 0 l 1
 64 0 l 1
 0 0 l 1
 0 64 l 1
 0 128 l 1
 0 192 l 1
 0 256 l 1
 0 320 l 1
 0 384 l 1
 0 448 l 1
 0 512 l 1
 0 576 l 1
 0 640 l 1
EndSplineSet
EndChar

StartChar: j
Encoding: 106 106 74
Width: 768
Flags: HW
LayerCount: 2
Fore
SplineSet
512 832 m 1
 576 832 l 1
 640 832 l 1
 640 768 l 1
 640 704 l 1
 576 704 l 1
 512 704 l 1
 512 768 l 1
 512 832 l 1
512 640 m 1
 576 640 l 1
 640 640 l 1
 640 576 l 1
 640 512 l 1
 640 448 l 1
 640 384 l 1
 640 320 l 1
 640 256 l 1
 640 192 l 1
 640 128 l 1
 640 64 l 1
 640 0 l 1
 640 -64 l 1
 640 -128 l 1
 576 -128 l 1
 576 -192 l 1
 512 -192 l 1
 512 -256 l 1
 448 -256 l 1
 384 -256 l 1
 320 -256 l 1
 256 -256 l 1
 192 -256 l 1
 128 -256 l 1
 128 -192 l 1
 64 -192 l 1
 64 -128 l 1
 0 -128 l 1
 0 -64 l 1
 0 0 l 1
 64 0 l 1
 128 0 l 1
 128 -64 l 1
 192 -64 l 1
 192 -128 l 1
 256 -128 l 1
 320 -128 l 1
 384 -128 l 1
 448 -128 l 1
 448 -64 l 1
 512 -64 l 1
 512 0 l 1
 512 64 l 1
 512 128 l 1
 512 192 l 1
 512 256 l 1
 512 320 l 1
 512 384 l 1
 512 448 l 1
 512 512 l 1
 512 576 l 1
 512 640 l 1
EndSplineSet
EndChar

StartChar: k
Encoding: 107 107 75
Width: 768
Flags: HW
LayerCount: 2
Fore
SplineSet
0 896 m 1
 64 896 l 1
 128 896 l 1
 128 832 l 1
 128 768 l 1
 128 704 l 1
 128 640 l 1
 128 576 l 1
 128 512 l 1
 128 448 l 1
 128 384 l 1
 192 384 l 1
 256 384 l 1
 320 384 l 1
 320 448 l 1
 384 448 l 1
 384 512 l 1
 448 512 l 1
 448 576 l 1
 512 576 l 1
 512 640 l 1
 576 640 l 1
 640 640 l 1
 640 576 l 1
 640 512 l 1
 576 512 l 1
 576 448 l 1
 512 448 l 1
 512 384 l 1
 448 384 l 1
 448 320 l 1
 448 256 l 1
 512 256 l 1
 512 192 l 1
 576 192 l 1
 576 128 l 1
 640 128 l 1
 640 64 l 1
 640 0 l 1
 576 0 l 1
 512 0 l 1
 512 64 l 1
 448 64 l 1
 448 128 l 1
 384 128 l 1
 384 192 l 1
 320 192 l 1
 320 256 l 1
 256 256 l 1
 192 256 l 1
 128 256 l 1
 128 192 l 1
 128 128 l 1
 128 64 l 1
 128 0 l 1
 64 0 l 1
 0 0 l 1
 0 64 l 1
 0 128 l 1
 0 192 l 1
 0 256 l 1
 0 320 l 1
 0 384 l 1
 0 448 l 1
 0 512 l 1
 0 576 l 1
 0 640 l 1
 0 704 l 1
 0 768 l 1
 0 832 l 1
 0 896 l 1
EndSplineSet
EndChar

StartChar: l
Encoding: 108 108 76
Width: 384
Flags: HW
LayerCount: 2
Fore
SplineSet
0 896 m 1
 64 896 l 1
 128 896 l 1
 128 832 l 1
 128 768 l 1
 128 704 l 1
 128 640 l 1
 128 576 l 1
 128 512 l 1
 128 448 l 1
 128 384 l 1
 128 320 l 1
 128 256 l 1
 128 192 l 1
 128 128 l 1
 192 128 l 1
 256 128 l 1
 256 64 l 1
 256 0 l 1
 192 0 l 1
 128 0 l 1
 64 0 l 1
 64 64 l 1
 0 64 l 1
 0 128 l 1
 0 192 l 1
 0 256 l 1
 0 320 l 1
 0 384 l 1
 0 448 l 1
 0 512 l 1
 0 576 l 1
 0 640 l 1
 0 704 l 1
 0 768 l 1
 0 832 l 1
 0 896 l 1
EndSplineSet
EndChar

StartChar: m
Encoding: 109 109 77
Width: 768
Flags: HW
LayerCount: 2
Fore
SplineSet
0 640 m 1
 64 640 l 1
 128 640 l 1
 192 640 l 1
 256 640 l 1
 320 640 l 1
 384 640 l 1
 448 640 l 1
 512 640 l 1
 576 640 l 1
 576 576 l 1
 640 576 l 1
 640 512 l 1
 640 448 l 1
 640 384 l 1
 640 320 l 1
 640 256 l 1
 640 192 l 1
 640 128 l 1
 640 64 l 1
 640 0 l 1
 576 0 l 1
 512 0 l 1
 512 64 l 1
 512 128 l 1
 512 192 l 1
 512 256 l 1
 512 320 l 1
 512 384 l 1
 512 448 l 1
 512 512 l 1
 448 512 l 1
 384 512 l 1
 384 448 l 1
 384 384 l 1
 384 320 l 1
 384 256 l 1
 384 192 l 1
 384 128 l 1
 384 64 l 1
 384 0 l 1
 320 0 l 1
 256 0 l 1
 256 64 l 1
 256 128 l 1
 256 192 l 1
 256 256 l 1
 256 320 l 1
 256 384 l 1
 256 448 l 1
 256 512 l 1
 192 512 l 1
 128 512 l 1
 128 448 l 1
 128 384 l 1
 128 320 l 1
 128 256 l 1
 128 192 l 1
 128 128 l 1
 128 64 l 1
 128 0 l 1
 64 0 l 1
 0 0 l 1
 0 64 l 1
 0 128 l 1
 0 192 l 1
 0 256 l 1
 0 320 l 1
 0 384 l 1
 0 448 l 1
 0 512 l 1
 0 576 l 1
 0 640 l 1
EndSplineSet
EndChar

StartChar: n
Encoding: 110 110 78
Width: 768
Flags: HW
LayerCount: 2
Fore
SplineSet
0 640 m 1
 64 640 l 1
 128 640 l 1
 192 640 l 1
 256 640 l 1
 320 640 l 1
 384 640 l 1
 448 640 l 1
 512 640 l 1
 576 640 l 1
 576 576 l 1
 640 576 l 1
 640 512 l 1
 640 448 l 1
 640 384 l 1
 640 320 l 1
 640 256 l 1
 640 192 l 1
 640 128 l 1
 640 64 l 1
 640 0 l 1
 576 0 l 1
 512 0 l 1
 512 64 l 1
 512 128 l 1
 512 192 l 1
 512 256 l 1
 512 320 l 1
 512 384 l 1
 512 448 l 1
 512 512 l 1
 448 512 l 1
 384 512 l 1
 320 512 l 1
 256 512 l 1
 192 512 l 1
 128 512 l 1
 128 448 l 1
 128 384 l 1
 128 320 l 1
 128 256 l 1
 128 192 l 1
 128 128 l 1
 128 64 l 1
 128 0 l 1
 64 0 l 1
 0 0 l 1
 0 64 l 1
 0 128 l 1
 0 192 l 1
 0 256 l 1
 0 320 l 1
 0 384 l 1
 0 448 l 1
 0 512 l 1
 0 576 l 1
 0 640 l 1
EndSplineSet
EndChar

StartChar: o
Encoding: 111 111 79
Width: 768
Flags: HW
LayerCount: 2
Fore
SplineSet
64 640 m 1
 128 640 l 1
 192 640 l 1
 256 640 l 1
 320 640 l 1
 384 640 l 1
 448 640 l 1
 512 640 l 1
 576 640 l 1
 576 576 l 1
 640 576 l 1
 640 512 l 1
 640 448 l 1
 640 384 l 1
 640 320 l 1
 640 256 l 1
 640 192 l 1
 640 128 l 1
 640 64 l 1
 576 64 l 1
 576 0 l 1
 512 0 l 1
 448 0 l 1
 384 0 l 1
 320 0 l 1
 256 0 l 1
 192 0 l 1
 128 0 l 1
 64 0 l 1
 64 64 l 1
 0 64 l 1
 0 128 l 1
 0 192 l 1
 0 256 l 1
 0 320 l 1
 0 384 l 1
 0 448 l 1
 0 512 l 1
 0 576 l 1
 64 576 l 1
 64 640 l 1
128 512 m 1
 128 448 l 1
 128 384 l 1
 128 320 l 1
 128 256 l 1
 128 192 l 1
 128 128 l 1
 192 128 l 1
 256 128 l 1
 320 128 l 1
 384 128 l 1
 448 128 l 1
 512 128 l 1
 512 192 l 1
 512 256 l 1
 512 320 l 1
 512 384 l 1
 512 448 l 1
 512 512 l 1
 448 512 l 1
 384 512 l 1
 320 512 l 1
 256 512 l 1
 192 512 l 1
 128 512 l 1
EndSplineSet
EndChar

StartChar: p
Encoding: 112 112 80
Width: 768
Flags: HW
LayerCount: 2
Fore
SplineSet
0 640 m 1
 64 640 l 1
 128 640 l 1
 192 640 l 1
 256 640 l 1
 320 640 l 1
 384 640 l 1
 448 640 l 1
 512 640 l 1
 576 640 l 1
 576 576 l 1
 640 576 l 1
 640 512 l 1
 640 448 l 1
 640 384 l 1
 640 320 l 1
 640 256 l 1
 640 192 l 1
 640 128 l 1
 640 64 l 1
 576 64 l 1
 576 0 l 1
 512 0 l 1
 448 0 l 1
 384 0 l 1
 320 0 l 1
 256 0 l 1
 192 0 l 1
 128 0 l 1
 128 -64 l 1
 128 -128 l 1
 128 -192 l 1
 128 -256 l 1
 64 -256 l 1
 0 -256 l 1
 0 -192 l 1
 0 -128 l 1
 0 -64 l 1
 0 0 l 1
 0 64 l 1
 0 128 l 1
 0 192 l 1
 0 256 l 1
 0 320 l 1
 0 384 l 1
 0 448 l 1
 0 512 l 1
 0 576 l 1
 0 640 l 1
128 512 m 1
 128 448 l 1
 128 384 l 1
 128 320 l 1
 128 256 l 1
 128 192 l 1
 128 128 l 1
 192 128 l 1
 256 128 l 1
 320 128 l 1
 384 128 l 1
 448 128 l 1
 512 128 l 1
 512 192 l 1
 512 256 l 1
 512 320 l 1
 512 384 l 1
 512 448 l 1
 512 512 l 1
 448 512 l 1
 384 512 l 1
 320 512 l 1
 256 512 l 1
 192 512 l 1
 128 512 l 1
EndSplineSet
EndChar

StartChar: q
Encoding: 113 113 81
Width: 768
Flags: HW
LayerCount: 2
Fore
SplineSet
64 640 m 5
 128 640 l 5
 192 640 l 5
 256 640 l 5
 320 640 l 5
 384 640 l 5
 448 640 l 5
 512 640 l 5
 576 640 l 5
 640 640 l 5
 640 576 l 5
 640 512 l 5
 640 448 l 5
 640 384 l 5
 640 320 l 5
 640 256 l 5
 640 192 l 5
 640 128 l 5
 640 64 l 5
 640 0 l 5
 640 -64 l 5
 640 -128 l 5
 640 -192 l 5
 640 -256 l 5
 576 -256 l 5
 512 -256 l 5
 512 -192 l 5
 512 -128 l 5
 512 -64 l 5
 512 0 l 5
 448 0 l 5
 384 0 l 5
 320 0 l 5
 256 0 l 5
 192 0 l 5
 128 0 l 5
 64 0 l 5
 64 64 l 5
 0 64 l 5
 0 128 l 5
 0 192 l 5
 0 256 l 5
 0 320 l 5
 0 384 l 5
 0 448 l 5
 0 512 l 5
 0 576 l 5
 64 576 l 5
 64 640 l 5
128 512 m 5
 128 448 l 5
 128 384 l 5
 128 320 l 5
 128 256 l 5
 128 192 l 5
 128 128 l 5
 192 128 l 5
 256 128 l 5
 320 128 l 5
 384 128 l 5
 448 128 l 5
 512 128 l 5
 512 192 l 5
 512 256 l 5
 512 320 l 5
 512 384 l 5
 512 448 l 5
 512 512 l 5
 448 512 l 5
 384 512 l 5
 320 512 l 5
 256 512 l 5
 192 512 l 5
 128 512 l 5
EndSplineSet
EndChar

StartChar: r
Encoding: 114 114 82
Width: 768
Flags: HW
LayerCount: 2
Fore
SplineSet
0 640 m 1
 64 640 l 1
 128 640 l 1
 128 576 l 1
 192 576 l 1
 192 640 l 1
 256 640 l 1
 320 640 l 1
 384 640 l 1
 448 640 l 1
 512 640 l 1
 576 640 l 1
 576 576 l 1
 640 576 l 1
 640 512 l 1
 640 448 l 1
 576 448 l 1
 512 448 l 1
 512 512 l 1
 448 512 l 1
 384 512 l 1
 320 512 l 1
 256 512 l 1
 256 448 l 1
 192 448 l 1
 128 448 l 1
 128 384 l 1
 128 320 l 1
 128 256 l 1
 128 192 l 1
 128 128 l 1
 128 64 l 1
 128 0 l 1
 64 0 l 1
 0 0 l 1
 0 64 l 1
 0 128 l 1
 0 192 l 1
 0 256 l 1
 0 320 l 1
 0 384 l 1
 0 448 l 1
 0 512 l 1
 0 576 l 1
 0 640 l 1
EndSplineSet
EndChar

StartChar: s
Encoding: 115 115 83
Width: 768
Flags: HW
LayerCount: 2
Fore
SplineSet
64 640 m 1
 128 640 l 1
 192 640 l 1
 256 640 l 1
 320 640 l 1
 384 640 l 1
 448 640 l 1
 512 640 l 1
 576 640 l 1
 576 576 l 1
 640 576 l 1
 640 512 l 1
 576 512 l 1
 512 512 l 1
 448 512 l 1
 384 512 l 1
 320 512 l 1
 256 512 l 1
 192 512 l 1
 128 512 l 1
 128 448 l 1
 128 384 l 1
 192 384 l 1
 256 384 l 1
 320 384 l 1
 384 384 l 1
 448 384 l 1
 512 384 l 1
 576 384 l 1
 576 320 l 1
 640 320 l 1
 640 256 l 1
 640 192 l 1
 640 128 l 1
 640 64 l 1
 576 64 l 1
 576 0 l 1
 512 0 l 1
 448 0 l 1
 384 0 l 1
 320 0 l 1
 256 0 l 1
 192 0 l 1
 128 0 l 1
 64 0 l 1
 64 64 l 1
 0 64 l 1
 0 128 l 1
 64 128 l 1
 128 128 l 1
 192 128 l 1
 256 128 l 1
 320 128 l 1
 384 128 l 1
 448 128 l 1
 512 128 l 1
 512 192 l 1
 512 256 l 1
 448 256 l 1
 384 256 l 1
 320 256 l 1
 256 256 l 1
 192 256 l 1
 128 256 l 1
 64 256 l 1
 64 320 l 1
 0 320 l 1
 0 384 l 1
 0 448 l 1
 0 512 l 1
 0 576 l 1
 64 576 l 1
 64 640 l 1
EndSplineSet
EndChar

StartChar: t
Encoding: 116 116 84
Width: 768
Flags: HW
LayerCount: 2
Fore
SplineSet
256 896 m 1
 320 896 l 1
 384 896 l 1
 384 832 l 1
 384 768 l 1
 384 704 l 1
 384 640 l 1
 448 640 l 1
 512 640 l 1
 576 640 l 1
 640 640 l 1
 640 576 l 1
 640 512 l 1
 576 512 l 1
 512 512 l 1
 448 512 l 1
 384 512 l 1
 384 448 l 1
 384 384 l 1
 384 320 l 1
 384 256 l 1
 384 192 l 1
 384 128 l 1
 448 128 l 1
 512 128 l 1
 576 128 l 1
 640 128 l 1
 640 64 l 1
 640 0 l 1
 576 0 l 1
 512 0 l 1
 448 0 l 1
 384 0 l 1
 320 0 l 1
 320 64 l 1
 256 64 l 1
 256 128 l 1
 256 192 l 1
 256 256 l 1
 256 320 l 1
 256 384 l 1
 256 448 l 1
 256 512 l 1
 192 512 l 1
 128 512 l 1
 64 512 l 1
 0 512 l 1
 0 576 l 1
 0 640 l 1
 64 640 l 1
 128 640 l 1
 192 640 l 1
 256 640 l 1
 256 704 l 1
 256 768 l 1
 256 832 l 1
 256 896 l 1
EndSplineSet
EndChar

StartChar: u
Encoding: 117 117 85
Width: 768
Flags: HW
LayerCount: 2
Fore
SplineSet
0 640 m 1
 64 640 l 1
 128 640 l 1
 128 576 l 1
 128 512 l 1
 128 448 l 1
 128 384 l 1
 128 320 l 1
 128 256 l 1
 128 192 l 1
 128 128 l 1
 192 128 l 1
 256 128 l 1
 320 128 l 1
 384 128 l 1
 448 128 l 1
 512 128 l 1
 512 192 l 1
 512 256 l 1
 512 320 l 1
 512 384 l 1
 512 448 l 1
 512 512 l 1
 512 576 l 1
 512 640 l 1
 576 640 l 1
 640 640 l 1
 640 576 l 1
 640 512 l 1
 640 448 l 1
 640 384 l 1
 640 320 l 1
 640 256 l 1
 640 192 l 1
 640 128 l 1
 640 64 l 1
 576 64 l 1
 576 0 l 1
 512 0 l 1
 448 0 l 1
 384 0 l 1
 320 0 l 1
 256 0 l 1
 192 0 l 1
 128 0 l 1
 64 0 l 1
 64 64 l 1
 0 64 l 1
 0 128 l 1
 0 192 l 1
 0 256 l 1
 0 320 l 1
 0 384 l 1
 0 448 l 1
 0 512 l 1
 0 576 l 1
 0 640 l 1
EndSplineSet
EndChar

StartChar: v
Encoding: 118 118 86
Width: 768
Flags: HW
LayerCount: 2
Fore
SplineSet
0 640 m 1
 64 640 l 1
 128 640 l 1
 128 576 l 1
 128 512 l 1
 128 448 l 1
 128 384 l 1
 128 320 l 1
 192 320 l 1
 192 256 l 1
 256 256 l 1
 256 192 l 1
 320 192 l 1
 384 192 l 1
 384 256 l 1
 448 256 l 1
 448 320 l 1
 512 320 l 1
 512 384 l 1
 512 448 l 1
 512 512 l 1
 512 576 l 1
 512 640 l 1
 576 640 l 1
 640 640 l 1
 640 576 l 1
 640 512 l 1
 640 448 l 1
 640 384 l 1
 640 320 l 1
 640 256 l 1
 576 256 l 1
 576 192 l 1
 512 192 l 1
 512 128 l 1
 448 128 l 1
 448 64 l 1
 384 64 l 1
 384 0 l 1
 320 0 l 1
 256 0 l 1
 256 64 l 1
 192 64 l 1
 192 128 l 1
 128 128 l 1
 128 192 l 1
 64 192 l 1
 64 256 l 1
 0 256 l 1
 0 320 l 1
 0 384 l 1
 0 448 l 1
 0 512 l 1
 0 576 l 1
 0 640 l 1
EndSplineSet
EndChar

StartChar: w
Encoding: 119 119 87
Width: 768
Flags: HW
LayerCount: 2
Fore
SplineSet
0 640 m 1
 64 640 l 1
 128 640 l 1
 128 576 l 1
 128 512 l 1
 128 448 l 1
 128 384 l 1
 128 320 l 1
 128 256 l 1
 128 192 l 1
 128 128 l 1
 192 128 l 1
 256 128 l 1
 256 192 l 1
 256 256 l 1
 256 320 l 1
 320 320 l 1
 384 320 l 1
 384 256 l 1
 384 192 l 1
 384 128 l 1
 448 128 l 1
 512 128 l 1
 512 192 l 1
 512 256 l 1
 512 320 l 1
 512 384 l 1
 512 448 l 1
 512 512 l 1
 512 576 l 1
 512 640 l 1
 576 640 l 1
 640 640 l 1
 640 576 l 1
 640 512 l 1
 640 448 l 1
 640 384 l 1
 640 320 l 1
 640 256 l 1
 640 192 l 1
 640 128 l 1
 640 64 l 1
 576 64 l 1
 576 0 l 1
 512 0 l 1
 448 0 l 1
 384 0 l 1
 320 0 l 1
 256 0 l 1
 192 0 l 1
 128 0 l 1
 64 0 l 1
 64 64 l 1
 0 64 l 1
 0 128 l 1
 0 192 l 1
 0 256 l 1
 0 320 l 1
 0 384 l 1
 0 448 l 1
 0 512 l 1
 0 576 l 1
 0 640 l 1
EndSplineSet
EndChar

StartChar: x
Encoding: 120 120 88
Width: 768
Flags: HW
LayerCount: 2
Fore
SplineSet
0 640 m 1
 64 640 l 1
 128 640 l 1
 128 576 l 1
 192 576 l 1
 192 512 l 1
 256 512 l 1
 256 448 l 1
 320 448 l 1
 384 448 l 1
 384 512 l 1
 448 512 l 1
 448 576 l 1
 512 576 l 1
 512 640 l 1
 576 640 l 1
 640 640 l 1
 640 576 l 1
 640 512 l 1
 576 512 l 1
 576 448 l 1
 512 448 l 1
 512 384 l 1
 448 384 l 1
 448 320 l 1
 448 256 l 1
 512 256 l 1
 512 192 l 1
 576 192 l 1
 576 128 l 1
 640 128 l 1
 640 64 l 1
 640 0 l 1
 576 0 l 1
 512 0 l 1
 512 64 l 1
 448 64 l 1
 448 128 l 1
 384 128 l 1
 384 192 l 1
 320 192 l 1
 256 192 l 1
 256 128 l 1
 192 128 l 1
 192 64 l 1
 128 64 l 1
 128 0 l 1
 64 0 l 1
 0 0 l 1
 0 64 l 1
 0 128 l 1
 64 128 l 1
 64 192 l 1
 128 192 l 1
 128 256 l 1
 192 256 l 1
 192 320 l 1
 192 384 l 1
 128 384 l 1
 128 448 l 1
 64 448 l 1
 64 512 l 1
 0 512 l 1
 0 576 l 1
 0 640 l 1
EndSplineSet
EndChar

StartChar: y
Encoding: 121 121 89
Width: 768
Flags: HW
LayerCount: 2
Fore
SplineSet
0 640 m 5
 64 640 l 5
 128 640 l 5
 128 576 l 5
 128 512 l 5
 128 448 l 5
 128 384 l 5
 128 320 l 5
 128 256 l 5
 128 192 l 5
 128 128 l 5
 192 128 l 5
 256 128 l 5
 320 128 l 5
 384 128 l 5
 448 128 l 5
 512 128 l 5
 512 192 l 5
 512 256 l 5
 512 320 l 5
 512 384 l 5
 512 448 l 5
 512 512 l 5
 512 576 l 5
 512 640 l 5
 576 640 l 5
 640 640 l 5
 640 576 l 5
 640 512 l 5
 640 448 l 5
 640 384 l 5
 640 320 l 5
 640 256 l 5
 640 192 l 5
 640 128 l 5
 640 64 l 5
 640 0 l 5
 640 -64 l 5
 640 -128 l 5
 640 -192 l 5
 576 -192 l 5
 576 -256 l 5
 512 -256 l 5
 448 -256 l 5
 384 -256 l 5
 320 -256 l 5
 256 -256 l 5
 192 -256 l 5
 128 -256 l 5
 64 -256 l 5
 64 -192 l 5
 0 -192 l 5
 0 -128 l 5
 64 -128 l 5
 128 -128 l 5
 192 -128 l 5
 256 -128 l 5
 320 -128 l 5
 384 -128 l 5
 448 -128 l 5
 512 -128 l 5
 512 -64 l 5
 512 0 l 5
 448 0 l 5
 384 0 l 5
 320 0 l 5
 256 0 l 5
 192 0 l 5
 128 0 l 5
 64 0 l 5
 64 64 l 5
 0 64 l 5
 0 128 l 5
 0 192 l 5
 0 256 l 5
 0 320 l 5
 0 384 l 5
 0 448 l 5
 0 512 l 5
 0 576 l 5
 0 640 l 5
EndSplineSet
EndChar

StartChar: z
Encoding: 122 122 90
Width: 768
Flags: HW
LayerCount: 2
Fore
SplineSet
0 640 m 1
 64 640 l 1
 128 640 l 1
 192 640 l 1
 256 640 l 1
 320 640 l 1
 384 640 l 1
 448 640 l 1
 512 640 l 1
 576 640 l 1
 640 640 l 1
 640 576 l 1
 640 512 l 1
 576 512 l 1
 576 448 l 1
 512 448 l 1
 512 384 l 1
 448 384 l 1
 448 320 l 1
 384 320 l 1
 384 256 l 1
 320 256 l 1
 320 192 l 1
 256 192 l 1
 256 128 l 1
 320 128 l 1
 384 128 l 1
 448 128 l 1
 512 128 l 1
 576 128 l 1
 640 128 l 1
 640 64 l 1
 640 0 l 1
 576 0 l 1
 512 0 l 1
 448 0 l 1
 384 0 l 1
 320 0 l 1
 256 0 l 1
 192 0 l 1
 128 0 l 1
 64 0 l 1
 0 0 l 1
 0 64 l 1
 0 128 l 1
 64 128 l 1
 64 192 l 1
 128 192 l 1
 128 256 l 1
 192 256 l 1
 192 320 l 1
 256 320 l 1
 256 384 l 1
 320 384 l 1
 320 448 l 1
 384 448 l 1
 384 512 l 1
 320 512 l 1
 256 512 l 1
 192 512 l 1
 128 512 l 1
 64 512 l 1
 0 512 l 1
 0 576 l 1
 0 640 l 1
EndSplineSet
EndChar

StartChar: asciitilde
Encoding: 126 126 94
Width: 768
Flags: HW
LayerCount: 2
Fore
SplineSet
128 576 m 1
 192 576 l 1
 256 576 l 1
 320 576 l 1
 320 512 l 1
 384 512 l 1
 384 448 l 1
 448 448 l 1
 448 512 l 1
 512 512 l 1
 512 576 l 1
 576 576 l 1
 640 576 l 1
 640 512 l 1
 640 448 l 1
 576 448 l 1
 576 384 l 1
 512 384 l 1
 512 320 l 1
 448 320 l 1
 384 320 l 1
 320 320 l 1
 320 384 l 1
 256 384 l 1
 256 448 l 1
 192 448 l 1
 192 384 l 1
 128 384 l 1
 128 320 l 1
 64 320 l 1
 0 320 l 1
 0 384 l 1
 0 448 l 1
 64 448 l 1
 64 512 l 1
 128 512 l 1
 128 576 l 1
EndSplineSet
EndChar
